<svg xmlns="http://www.w3.org/2000/svg" xmlns:xlink="http://www.w3.org/1999/xlink" width="500" zoomAndPan="magnify" viewBox="0 0 375 374.999991" height="500" preserveAspectRatio="xMidYMid meet" version="1.0"><defs><g/><clipPath id="eb63558e9c"><path d="M 14.792969 156 L 178 156 L 178 243.476562 L 14.792969 243.476562 Z M 14.792969 156 " clip-rule="nonzero"/></clipPath><clipPath id="b4c120a3ff"><path d="M 30 121.152344 L 193.363281 121.152344 L 193.363281 209 L 30 209 Z M 30 121.152344 " clip-rule="nonzero"/></clipPath></defs><g clip-path="url(#eb63558e9c)"><path fill="#231916" d="M 133.753906 156.375 L 78.820312 156.375 C 78.261719 156.375 77.710938 156.425781 77.164062 156.535156 C 76.617188 156.644531 76.085938 156.804688 75.570312 157.019531 C 75.054688 157.234375 74.566406 157.496094 74.101562 157.804688 C 73.636719 158.113281 73.210938 158.464844 72.816406 158.859375 C 72.421875 159.253906 72.070312 159.683594 71.757812 160.148438 C 71.449219 160.609375 71.1875 161.101562 70.972656 161.617188 C 70.761719 162.128906 70.601562 162.660156 70.492188 163.207031 C 70.382812 163.753906 70.328125 164.308594 70.328125 164.863281 C 70.328125 165.421875 70.382812 165.976562 70.492188 166.523438 C 70.601562 167.070312 70.761719 167.597656 70.972656 168.113281 C 71.1875 168.628906 71.449219 169.117188 71.757812 169.582031 C 72.070312 170.046875 72.421875 170.476562 72.816406 170.871094 C 73.210938 171.265625 73.636719 171.617188 74.101562 171.925781 C 74.566406 172.234375 75.054688 172.496094 75.570312 172.710938 C 76.085938 172.921875 76.617188 173.085938 77.164062 173.195312 C 77.710938 173.300781 78.261719 173.355469 78.820312 173.355469 L 133.753906 173.355469 C 134.621094 173.359375 135.488281 173.40625 136.351562 173.492188 C 137.214844 173.582031 138.074219 173.710938 138.925781 173.882812 C 139.777344 174.054688 140.621094 174.269531 141.449219 174.523438 C 142.28125 174.777344 143.097656 175.070312 143.898438 175.40625 C 144.703125 175.738281 145.484375 176.113281 146.25 176.523438 C 147.015625 176.933594 147.761719 177.378906 148.484375 177.863281 C 149.203125 178.347656 149.902344 178.863281 150.574219 179.414062 C 151.246094 179.96875 151.886719 180.550781 152.5 181.164062 C 153.117188 181.777344 153.699219 182.421875 154.25 183.09375 C 154.800781 183.765625 155.320312 184.460938 155.804688 185.183594 C 156.285156 185.90625 156.734375 186.648438 157.144531 187.414062 C 157.554688 188.179688 157.925781 188.964844 158.261719 189.765625 C 158.59375 190.566406 158.890625 191.386719 159.144531 192.214844 C 159.398438 193.046875 159.609375 193.886719 159.78125 194.738281 C 159.953125 195.589844 160.085938 196.449219 160.171875 197.3125 C 160.261719 198.179688 160.308594 199.042969 160.308594 199.914062 C 160.308594 200.78125 160.261719 201.648438 160.171875 202.511719 C 160.085938 203.378906 159.953125 204.234375 159.78125 205.085938 C 159.609375 205.9375 159.398438 206.78125 159.144531 207.613281 C 158.890625 208.441406 158.59375 209.257812 158.261719 210.0625 C 157.925781 210.863281 157.554688 211.648438 157.144531 212.414062 C 156.734375 213.179688 156.285156 213.921875 155.804688 214.644531 C 155.320312 215.367188 154.800781 216.0625 154.25 216.734375 C 153.699219 217.40625 153.117188 218.046875 152.5 218.664062 C 151.886719 219.277344 151.246094 219.859375 150.574219 220.410156 C 149.902344 220.964844 149.207031 221.480469 148.484375 221.964844 C 147.761719 222.449219 147.015625 222.894531 146.25 223.304688 C 145.484375 223.714844 144.703125 224.089844 143.898438 224.421875 C 143.097656 224.757812 142.28125 225.050781 141.449219 225.304688 C 140.621094 225.558594 139.777344 225.773438 138.925781 225.945312 C 138.074219 226.117188 137.214844 226.246094 136.351562 226.332031 C 135.488281 226.421875 134.621094 226.46875 133.753906 226.472656 L 14.9375 226.472656 L 14.9375 243.453125 L 133.753906 243.453125 C 135.175781 243.449219 136.597656 243.378906 138.015625 243.234375 C 139.433594 243.09375 140.84375 242.878906 142.238281 242.601562 C 143.636719 242.320312 145.015625 241.972656 146.378906 241.554688 C 147.742188 241.140625 149.082031 240.660156 150.398438 240.113281 C 151.714844 239.566406 153 238.957031 154.257812 238.28125 C 155.511719 237.609375 156.734375 236.878906 157.917969 236.085938 C 159.101562 235.292969 160.246094 234.445312 161.347656 233.539062 C 162.449219 232.636719 163.503906 231.679688 164.511719 230.671875 C 165.519531 229.664062 166.472656 228.609375 167.378906 227.507812 C 168.28125 226.40625 169.132812 225.265625 169.921875 224.078125 C 170.714844 222.894531 171.449219 221.675781 172.121094 220.417969 C 172.792969 219.164062 173.40625 217.875 173.953125 216.5625 C 174.5 215.246094 174.980469 213.90625 175.394531 212.542969 C 175.8125 211.179688 176.160156 209.800781 176.441406 208.402344 C 176.71875 207.003906 176.933594 205.597656 177.074219 204.179688 C 177.21875 202.761719 177.289062 201.339844 177.292969 199.914062 C 177.289062 198.488281 177.21875 197.066406 177.074219 195.648438 C 176.933594 194.230469 176.722656 192.824219 176.441406 191.425781 C 176.160156 190.03125 175.8125 188.648438 175.394531 187.285156 C 174.980469 185.921875 174.5 184.585938 173.953125 183.269531 C 173.40625 181.953125 172.796875 180.667969 172.121094 179.410156 C 171.449219 178.152344 170.71875 176.933594 169.925781 175.75 C 169.132812 174.5625 168.285156 173.421875 167.378906 172.320312 C 166.476562 171.21875 165.519531 170.164062 164.511719 169.15625 C 163.503906 168.148438 162.449219 167.191406 161.347656 166.289062 C 160.246094 165.382812 159.101562 164.535156 157.917969 163.742188 C 156.734375 162.949219 155.515625 162.21875 154.257812 161.542969 C 153 160.871094 151.714844 160.261719 150.398438 159.714844 C 149.082031 159.167969 147.742188 158.6875 146.378906 158.269531 C 145.015625 157.855469 143.636719 157.507812 142.238281 157.226562 C 140.84375 156.945312 139.433594 156.734375 138.015625 156.59375 C 136.597656 156.449219 135.175781 156.375 133.753906 156.375 Z M 133.753906 156.375 " fill-opacity="1" fill-rule="nonzero"/></g><g clip-path="url(#b4c120a3ff)"><path fill="#231916" d="M 74.398438 121.152344 C 72.972656 121.15625 71.550781 121.230469 70.132812 121.371094 C 68.714844 121.515625 67.308594 121.726562 65.910156 122.007812 C 64.511719 122.289062 63.132812 122.636719 61.769531 123.050781 C 60.40625 123.46875 59.066406 123.949219 57.75 124.496094 C 56.433594 125.042969 55.148438 125.652344 53.890625 126.324219 C 52.636719 127 51.414062 127.730469 50.230469 128.523438 C 49.046875 129.316406 47.902344 130.164062 46.800781 131.070312 C 45.699219 131.972656 44.648438 132.929688 43.640625 133.9375 C 42.632812 134.945312 41.675781 136 40.769531 137.101562 C 39.867188 138.203125 39.019531 139.34375 38.226562 140.527344 C 37.433594 141.714844 36.699219 142.933594 36.027344 144.191406 C 35.355469 145.445312 34.746094 146.730469 34.199219 148.046875 C 33.652344 149.363281 33.167969 150.703125 32.753906 152.066406 C 32.339844 153.429688 31.988281 154.808594 31.710938 156.207031 C 31.429688 157.605469 31.21875 159.011719 31.074219 160.429688 C 30.933594 161.847656 30.859375 163.269531 30.855469 164.695312 C 30.859375 166.121094 30.933594 167.539062 31.074219 168.957031 C 31.21875 170.375 31.429688 171.785156 31.710938 173.179688 C 31.988281 174.578125 32.339844 175.957031 32.753906 177.320312 C 33.167969 178.683594 33.652344 180.023438 34.199219 181.339844 C 34.746094 182.65625 35.355469 183.941406 36.027344 185.199219 C 36.699219 186.453125 37.433594 187.675781 38.226562 188.859375 C 39.019531 190.042969 39.867188 191.1875 40.769531 192.289062 C 41.675781 193.390625 42.632812 194.445312 43.640625 195.453125 C 44.648438 196.460938 45.699219 197.414062 46.800781 198.320312 C 47.902344 199.222656 49.046875 200.074219 50.230469 200.863281 C 51.414062 201.65625 52.636719 202.390625 53.890625 203.0625 C 55.148438 203.734375 56.433594 204.34375 57.75 204.890625 C 59.066406 205.441406 60.40625 205.921875 61.769531 206.335938 C 63.132812 206.753906 64.511719 207.101562 65.910156 207.378906 C 67.308594 207.660156 68.714844 207.871094 70.132812 208.015625 C 71.550781 208.15625 72.972656 208.230469 74.398438 208.234375 L 129.328125 208.234375 C 129.886719 208.234375 130.4375 208.179688 130.984375 208.070312 C 131.53125 207.960938 132.0625 207.800781 132.578125 207.585938 C 133.089844 207.371094 133.578125 207.109375 134.042969 206.800781 C 134.507812 206.492188 134.933594 206.136719 135.328125 205.746094 C 135.722656 205.351562 136.074219 204.921875 136.382812 204.457031 C 136.691406 203.996094 136.953125 203.503906 137.167969 202.992188 C 137.378906 202.476562 137.542969 201.945312 137.648438 201.398438 C 137.757812 200.851562 137.8125 200.300781 137.8125 199.742188 C 137.8125 199.183594 137.757812 198.632812 137.648438 198.085938 C 137.542969 197.539062 137.378906 197.011719 137.167969 196.496094 C 136.953125 195.980469 136.691406 195.492188 136.382812 195.027344 C 136.074219 194.5625 135.722656 194.136719 135.328125 193.742188 C 134.933594 193.347656 134.507812 192.996094 134.042969 192.683594 C 133.578125 192.375 133.089844 192.113281 132.578125 191.898438 C 132.0625 191.6875 131.53125 191.523438 130.984375 191.414062 C 130.4375 191.304688 129.886719 191.25 129.328125 191.25 L 74.398438 191.25 C 73.527344 191.246094 72.660156 191.203125 71.796875 191.113281 C 70.933594 191.027344 70.074219 190.894531 69.222656 190.722656 C 68.371094 190.550781 67.53125 190.339844 66.699219 190.085938 C 65.867188 189.832031 65.050781 189.535156 64.25 189.203125 C 63.449219 188.867188 62.664062 188.496094 61.898438 188.085938 C 61.132812 187.675781 60.386719 187.226562 59.667969 186.746094 C 58.945312 186.261719 58.246094 185.742188 57.578125 185.191406 C 56.90625 184.640625 56.261719 184.058594 55.648438 183.445312 C 55.03125 182.828125 54.449219 182.1875 53.898438 181.515625 C 53.347656 180.84375 52.828125 180.148438 52.347656 179.425781 C 51.863281 178.703125 51.414062 177.960938 51.003906 177.195312 C 50.59375 176.429688 50.222656 175.644531 49.886719 174.84375 C 49.554688 174.039062 49.257812 173.222656 49.003906 172.394531 C 48.75 171.5625 48.539062 170.722656 48.367188 169.871094 C 48.195312 169.019531 48.0625 168.160156 47.976562 167.296875 C 47.886719 166.429688 47.84375 165.5625 47.839844 164.695312 C 47.84375 163.828125 47.886719 162.960938 47.976562 162.09375 C 48.0625 161.230469 48.195312 160.375 48.367188 159.519531 C 48.539062 158.667969 48.75 157.828125 49.003906 156.996094 C 49.257812 156.167969 49.554688 155.351562 49.886719 154.546875 C 50.222656 153.746094 50.59375 152.960938 51.003906 152.195312 C 51.414062 151.429688 51.863281 150.6875 52.34375 149.964844 C 52.828125 149.242188 53.347656 148.546875 53.898438 147.875 C 54.449219 147.203125 55.03125 146.558594 55.648438 145.945312 C 56.261719 145.332031 56.902344 144.75 57.574219 144.195312 C 58.246094 143.644531 58.945312 143.128906 59.664062 142.644531 C 60.386719 142.160156 61.132812 141.714844 61.898438 141.304688 C 62.664062 140.894531 63.445312 140.519531 64.25 140.1875 C 65.050781 139.851562 65.867188 139.558594 66.699219 139.304688 C 67.53125 139.050781 68.371094 138.835938 69.222656 138.664062 C 70.074219 138.492188 70.933594 138.363281 71.796875 138.273438 C 72.660156 138.1875 73.527344 138.140625 74.398438 138.136719 L 193.214844 138.136719 L 193.214844 121.152344 Z M 74.398438 121.152344 " fill-opacity="1" fill-rule="nonzero"/></g><g fill="#000000" fill-opacity="1"><g transform="translate(193.365227, 191.602492)"><g><path d="M 15.046875 0.671875 C 12.347656 0.671875 9.726562 0.335938 7.1875 -0.328125 C 4.644531 -0.992188 2.582031 -1.882812 1 -3 L 4.09375 -9.953125 C 5.582031 -8.960938 7.3125 -8.164062 9.28125 -7.5625 C 11.25 -6.96875 13.1875 -6.671875 15.09375 -6.671875 C 18.707031 -6.671875 20.515625 -7.570312 20.515625 -9.375 C 20.515625 -10.332031 20 -11.039062 18.96875 -11.5 C 17.9375 -11.957031 16.28125 -12.441406 14 -12.953125 C 11.488281 -13.492188 9.390625 -14.070312 7.703125 -14.6875 C 6.023438 -15.300781 4.582031 -16.289062 3.375 -17.65625 C 2.175781 -19.019531 1.578125 -20.863281 1.578125 -23.1875 C 1.578125 -25.21875 2.128906 -27.050781 3.234375 -28.6875 C 4.347656 -30.320312 6.003906 -31.613281 8.203125 -32.5625 C 10.410156 -33.519531 13.117188 -34 16.328125 -34 C 18.515625 -34 20.671875 -33.75 22.796875 -33.25 C 24.929688 -32.757812 26.804688 -32.039062 28.421875 -31.09375 L 25.515625 -24.09375 C 22.335938 -25.800781 19.257812 -26.65625 16.28125 -26.65625 C 14.40625 -26.65625 13.039062 -26.378906 12.1875 -25.828125 C 11.332031 -25.273438 10.90625 -24.550781 10.90625 -23.65625 C 10.90625 -22.769531 11.410156 -22.101562 12.421875 -21.65625 C 13.441406 -21.21875 15.078125 -20.757812 17.328125 -20.28125 C 19.867188 -19.738281 21.972656 -19.15625 23.640625 -18.53125 C 25.304688 -17.914062 26.75 -16.929688 27.96875 -15.578125 C 29.1875 -14.234375 29.796875 -12.40625 29.796875 -10.09375 C 29.796875 -8.09375 29.238281 -6.28125 28.125 -4.65625 C 27.019531 -3.039062 25.359375 -1.75 23.140625 -0.78125 C 20.921875 0.1875 18.222656 0.671875 15.046875 0.671875 Z M 15.046875 0.671875 "/></g></g></g><g fill="#000000" fill-opacity="1"><g transform="translate(222.600474, 191.602492)"><g><path d="M 19.703125 -26.234375 C 22.910156 -26.234375 25.488281 -25.28125 27.4375 -23.375 C 29.394531 -21.46875 30.375 -18.597656 30.375 -14.765625 L 30.375 0 L 21.328125 0 L 21.328125 -13.28125 C 21.328125 -16.800781 19.914062 -18.5625 17.09375 -18.5625 C 15.539062 -18.5625 14.296875 -18.050781 13.359375 -17.03125 C 12.421875 -16.019531 11.953125 -14.5 11.953125 -12.46875 L 11.953125 0 L 2.90625 0 L 2.90625 -25.796875 L 11.515625 -25.796875 L 11.515625 -23 C 12.535156 -24.039062 13.742188 -24.835938 15.140625 -25.390625 C 16.535156 -25.953125 18.054688 -26.234375 19.703125 -26.234375 Z M 19.703125 -26.234375 "/></g></g></g><g fill="#000000" fill-opacity="1"><g transform="translate(254.168848, 191.602492)"><g><path d="M 13.90625 -26.234375 C 18.1875 -26.234375 21.453125 -25.253906 23.703125 -23.296875 C 25.960938 -21.347656 27.09375 -18.359375 27.09375 -14.328125 L 27.09375 0 L 18.65625 0 L 18.65625 -3.328125 C 17.351562 -0.828125 14.816406 0.421875 11.046875 0.421875 C 9.046875 0.421875 7.316406 0.0703125 5.859375 -0.625 C 4.398438 -1.320312 3.296875 -2.265625 2.546875 -3.453125 C 1.796875 -4.640625 1.421875 -5.992188 1.421875 -7.515625 C 1.421875 -9.960938 2.359375 -11.859375 4.234375 -13.203125 C 6.109375 -14.554688 9 -15.234375 12.90625 -15.234375 L 18.046875 -15.234375 C 17.890625 -17.960938 16.0625 -19.328125 12.5625 -19.328125 C 11.332031 -19.328125 10.082031 -19.128906 8.8125 -18.734375 C 7.539062 -18.335938 6.457031 -17.789062 5.5625 -17.09375 L 2.515625 -23.234375 C 3.953125 -24.179688 5.691406 -24.914062 7.734375 -25.4375 C 9.785156 -25.96875 11.84375 -26.234375 13.90625 -26.234375 Z M 13.5625 -5.28125 C 14.613281 -5.28125 15.535156 -5.535156 16.328125 -6.046875 C 17.117188 -6.554688 17.691406 -7.300781 18.046875 -8.28125 L 18.046875 -10.515625 L 14.140625 -10.515625 C 11.503906 -10.515625 10.1875 -9.644531 10.1875 -7.90625 C 10.1875 -7.113281 10.488281 -6.476562 11.09375 -6 C 11.695312 -5.519531 12.519531 -5.28125 13.5625 -5.28125 Z M 13.5625 -5.28125 "/></g></g></g><g fill="#000000" fill-opacity="1"><g transform="translate(282.499415, 191.602492)"><g><path d="M 19.140625 -26.234375 C 21.484375 -26.234375 23.613281 -25.6875 25.53125 -24.59375 C 27.457031 -23.5 28.984375 -21.941406 30.109375 -19.921875 C 31.234375 -17.910156 31.796875 -15.570312 31.796875 -12.90625 C 31.796875 -10.238281 31.234375 -7.894531 30.109375 -5.875 C 28.984375 -3.863281 27.457031 -2.3125 25.53125 -1.21875 C 23.613281 -0.125 21.484375 0.421875 19.140625 0.421875 C 16.117188 0.421875 13.722656 -0.476562 11.953125 -2.28125 L 11.953125 9.234375 L 2.90625 9.234375 L 2.90625 -25.796875 L 11.515625 -25.796875 L 11.515625 -23.234375 C 13.203125 -25.234375 15.742188 -26.234375 19.140625 -26.234375 Z M 17.234375 -6.765625 C 18.816406 -6.765625 20.113281 -7.3125 21.125 -8.40625 C 22.144531 -9.5 22.65625 -11 22.65625 -12.90625 C 22.65625 -14.8125 22.144531 -16.3125 21.125 -17.40625 C 20.113281 -18.5 18.816406 -19.046875 17.234375 -19.046875 C 15.648438 -19.046875 14.347656 -18.5 13.328125 -17.40625 C 12.316406 -16.3125 11.8125 -14.8125 11.8125 -12.90625 C 11.8125 -11 12.316406 -9.5 13.328125 -8.40625 C 14.347656 -7.3125 15.648438 -6.765625 17.234375 -6.765625 Z M 17.234375 -6.765625 "/></g></g></g><g fill="#000000" fill-opacity="1"><g transform="translate(193.365227, 241.602858)"><g><path d="M 15.046875 0.671875 C 12.347656 0.671875 9.726562 0.335938 7.1875 -0.328125 C 4.644531 -0.992188 2.582031 -1.882812 1 -3 L 4.09375 -9.953125 C 5.582031 -8.960938 7.3125 -8.164062 9.28125 -7.5625 C 11.25 -6.96875 13.1875 -6.671875 15.09375 -6.671875 C 18.707031 -6.671875 20.515625 -7.570312 20.515625 -9.375 C 20.515625 -10.332031 20 -11.039062 18.96875 -11.5 C 17.9375 -11.957031 16.28125 -12.441406 14 -12.953125 C 11.488281 -13.492188 9.390625 -14.070312 7.703125 -14.6875 C 6.023438 -15.300781 4.582031 -16.289062 3.375 -17.65625 C 2.175781 -19.019531 1.578125 -20.863281 1.578125 -23.1875 C 1.578125 -25.21875 2.128906 -27.050781 3.234375 -28.6875 C 4.347656 -30.320312 6.003906 -31.613281 8.203125 -32.5625 C 10.410156 -33.519531 13.117188 -34 16.328125 -34 C 18.515625 -34 20.671875 -33.75 22.796875 -33.25 C 24.929688 -32.757812 26.804688 -32.039062 28.421875 -31.09375 L 25.515625 -24.09375 C 22.335938 -25.800781 19.257812 -26.65625 16.28125 -26.65625 C 14.40625 -26.65625 13.039062 -26.378906 12.1875 -25.828125 C 11.332031 -25.273438 10.90625 -24.550781 10.90625 -23.65625 C 10.90625 -22.769531 11.410156 -22.101562 12.421875 -21.65625 C 13.441406 -21.21875 15.078125 -20.757812 17.328125 -20.28125 C 19.867188 -19.738281 21.972656 -19.15625 23.640625 -18.53125 C 25.304688 -17.914062 26.75 -16.929688 27.96875 -15.578125 C 29.1875 -14.234375 29.796875 -12.40625 29.796875 -10.09375 C 29.796875 -8.09375 29.238281 -6.28125 28.125 -4.65625 C 27.019531 -3.039062 25.359375 -1.75 23.140625 -0.78125 C 20.921875 0.1875 18.222656 0.671875 15.046875 0.671875 Z M 15.046875 0.671875 "/></g></g></g><g fill="#000000" fill-opacity="1"><g transform="translate(222.600474, 241.602858)"><g><path d="M 29.28125 -12.859375 C 29.28125 -12.796875 29.234375 -12.046875 29.140625 -10.609375 L 10.375 -10.609375 C 10.757812 -9.285156 11.5 -8.265625 12.59375 -7.546875 C 13.6875 -6.828125 15.054688 -6.46875 16.703125 -6.46875 C 17.941406 -6.46875 19.015625 -6.640625 19.921875 -6.984375 C 20.828125 -7.335938 21.738281 -7.914062 22.65625 -8.71875 L 27.421875 -3.765625 C 24.910156 -0.972656 21.242188 0.421875 16.421875 0.421875 C 13.410156 0.421875 10.757812 -0.144531 8.46875 -1.28125 C 6.1875 -2.425781 4.414062 -4.015625 3.15625 -6.046875 C 1.90625 -8.078125 1.28125 -10.378906 1.28125 -12.953125 C 1.28125 -15.492188 1.890625 -17.769531 3.109375 -19.78125 C 4.335938 -21.800781 6.03125 -23.378906 8.1875 -24.515625 C 10.34375 -25.660156 12.769531 -26.234375 15.46875 -26.234375 C 18.039062 -26.234375 20.375 -25.703125 22.46875 -24.640625 C 24.5625 -23.578125 26.21875 -22.035156 27.4375 -20.015625 C 28.664062 -18.003906 29.28125 -15.617188 29.28125 -12.859375 Z M 15.515625 -19.8125 C 14.117188 -19.8125 12.953125 -19.410156 12.015625 -18.609375 C 11.078125 -17.816406 10.484375 -16.738281 10.234375 -15.375 L 20.8125 -15.375 C 20.550781 -16.738281 19.953125 -17.816406 19.015625 -18.609375 C 18.078125 -19.410156 16.910156 -19.8125 15.515625 -19.8125 Z M 15.515625 -19.8125 "/></g></g></g><g fill="#000000" fill-opacity="1"><g transform="translate(251.597655, 241.602858)"><g><path d="M 29.28125 -12.859375 C 29.28125 -12.796875 29.234375 -12.046875 29.140625 -10.609375 L 10.375 -10.609375 C 10.757812 -9.285156 11.5 -8.265625 12.59375 -7.546875 C 13.6875 -6.828125 15.054688 -6.46875 16.703125 -6.46875 C 17.941406 -6.46875 19.015625 -6.640625 19.921875 -6.984375 C 20.828125 -7.335938 21.738281 -7.914062 22.65625 -8.71875 L 27.421875 -3.765625 C 24.910156 -0.972656 21.242188 0.421875 16.421875 0.421875 C 13.410156 0.421875 10.757812 -0.144531 8.46875 -1.28125 C 6.1875 -2.425781 4.414062 -4.015625 3.15625 -6.046875 C 1.90625 -8.078125 1.28125 -10.378906 1.28125 -12.953125 C 1.28125 -15.492188 1.890625 -17.769531 3.109375 -19.78125 C 4.335938 -21.800781 6.03125 -23.378906 8.1875 -24.515625 C 10.34375 -25.660156 12.769531 -26.234375 15.46875 -26.234375 C 18.039062 -26.234375 20.375 -25.703125 22.46875 -24.640625 C 24.5625 -23.578125 26.21875 -22.035156 27.4375 -20.015625 C 28.664062 -18.003906 29.28125 -15.617188 29.28125 -12.859375 Z M 15.515625 -19.8125 C 14.117188 -19.8125 12.953125 -19.410156 12.015625 -18.609375 C 11.078125 -17.816406 10.484375 -16.738281 10.234375 -15.375 L 20.8125 -15.375 C 20.550781 -16.738281 19.953125 -17.816406 19.015625 -18.609375 C 18.078125 -19.410156 16.910156 -19.8125 15.515625 -19.8125 Z M 15.515625 -19.8125 "/></g></g></g><g fill="#000000" fill-opacity="1"><g transform="translate(280.594832, 241.602858)"><g><path d="M 14.609375 -9.046875 L 11.953125 -6.328125 L 11.953125 0 L 2.90625 0 L 2.90625 -35.328125 L 11.953125 -35.328125 L 11.953125 -16.8125 L 21.1875 -25.796875 L 31.890625 -25.796875 L 21.1875 -14.765625 L 32.796875 0 L 21.859375 0 Z M 14.609375 -9.046875 "/></g></g></g><g fill="#000000" fill-opacity="1"><g transform="translate(311.687064, 241.602858)"><g><path d="M 29.28125 -12.859375 C 29.28125 -12.796875 29.234375 -12.046875 29.140625 -10.609375 L 10.375 -10.609375 C 10.757812 -9.285156 11.5 -8.265625 12.59375 -7.546875 C 13.6875 -6.828125 15.054688 -6.46875 16.703125 -6.46875 C 17.941406 -6.46875 19.015625 -6.640625 19.921875 -6.984375 C 20.828125 -7.335938 21.738281 -7.914062 22.65625 -8.71875 L 27.421875 -3.765625 C 24.910156 -0.972656 21.242188 0.421875 16.421875 0.421875 C 13.410156 0.421875 10.757812 -0.144531 8.46875 -1.28125 C 6.1875 -2.425781 4.414062 -4.015625 3.15625 -6.046875 C 1.90625 -8.078125 1.28125 -10.378906 1.28125 -12.953125 C 1.28125 -15.492188 1.890625 -17.769531 3.109375 -19.78125 C 4.335938 -21.800781 6.03125 -23.378906 8.1875 -24.515625 C 10.34375 -25.660156 12.769531 -26.234375 15.46875 -26.234375 C 18.039062 -26.234375 20.375 -25.703125 22.46875 -24.640625 C 24.5625 -23.578125 26.21875 -22.035156 27.4375 -20.015625 C 28.664062 -18.003906 29.28125 -15.617188 29.28125 -12.859375 Z M 15.515625 -19.8125 C 14.117188 -19.8125 12.953125 -19.410156 12.015625 -18.609375 C 11.078125 -17.816406 10.484375 -16.738281 10.234375 -15.375 L 20.8125 -15.375 C 20.550781 -16.738281 19.953125 -17.816406 19.015625 -18.609375 C 18.078125 -19.410156 16.910156 -19.8125 15.515625 -19.8125 Z M 15.515625 -19.8125 "/></g></g></g><g fill="#000000" fill-opacity="1"><g transform="translate(340.684248, 241.602858)"><g><path d="M 11.515625 -22.703125 C 12.441406 -23.878906 13.640625 -24.757812 15.109375 -25.34375 C 16.585938 -25.9375 18.28125 -26.234375 20.1875 -26.234375 L 20.1875 -18.09375 C 19.363281 -18.1875 18.679688 -18.234375 18.140625 -18.234375 C 16.203125 -18.234375 14.6875 -17.707031 13.59375 -16.65625 C 12.5 -15.613281 11.953125 -14.015625 11.953125 -11.859375 L 11.953125 0 L 2.90625 0 L 2.90625 -25.796875 L 11.515625 -25.796875 Z M 11.515625 -22.703125 "/></g></g></g></svg>