<svg xmlns="http://www.w3.org/2000/svg" xmlns:xlink="http://www.w3.org/1999/xlink" width="400" zoomAndPan="magnify" viewBox="0 0 300 299.999988" height="400" preserveAspectRatio="xMidYMid meet" version="1.0"><defs><clipPath id="a164f875a8"><path d="M 2.546875 0 L 300 0 L 300 300 L 2.546875 300 Z M 2.546875 0 " clip-rule="nonzero"/></clipPath></defs><g clip-path="url(#a164f875a8)"><path fill="#5271ff" d="M 152.546875 0 C 69.703125 0 2.546875 67.15625 2.546875 150 C 2.546875 232.84375 69.703125 300 152.546875 300 C 235.390625 300 302.546875 232.84375 302.546875 150 C 302.546875 67.15625 235.390625 0 152.546875 0 Z M 152.546875 52.734375 C 174.238281 52.734375 191.824219 73.515625 191.824219 99.152344 C 191.824219 124.785156 174.238281 145.570312 152.546875 145.570312 C 130.855469 145.570312 113.273438 124.785156 113.273438 99.152344 C 113.273438 73.515625 130.855469 52.734375 152.546875 52.734375 Z M 219.027344 235.546875 L 86.066406 235.546875 C 79.402344 235.546875 73.996094 230.140625 73.996094 223.476562 C 73.996094 192.28125 109.164062 166.992188 152.546875 166.992188 C 195.929688 166.992188 231.101562 192.28125 231.101562 223.476562 C 231.101562 230.140625 225.695312 235.546875 219.027344 235.546875 Z M 219.027344 235.546875 " fill-opacity="1" fill-rule="nonzero"/></g></svg>