<svg xmlns="http://www.w3.org/2000/svg" xmlns:xlink="http://www.w3.org/1999/xlink" width="400" zoomAndPan="magnify" viewBox="0 0 300 299.999988" height="400" preserveAspectRatio="xMidYMid meet" version="1.0"><path fill="#000000" d="M 150 0 C 147.546875 0 145.089844 0.0585938 142.640625 0.179688 C 140.1875 0.300781 137.742188 0.480469 135.296875 0.722656 C 132.855469 0.964844 130.417969 1.261719 127.992188 1.625 C 125.5625 1.984375 123.144531 2.402344 120.738281 2.882812 C 118.328125 3.359375 115.933594 3.898438 113.554688 4.496094 C 111.171875 5.089844 108.804688 5.746094 106.457031 6.457031 C 104.109375 7.171875 101.777344 7.941406 99.464844 8.769531 C 97.15625 9.59375 94.867188 10.480469 92.597656 11.417969 C 90.328125 12.359375 88.085938 13.351562 85.867188 14.402344 C 83.648438 15.453125 81.457031 16.554688 79.289062 17.710938 C 77.125 18.867188 74.988281 20.078125 72.882812 21.339844 C 70.777344 22.601562 68.707031 23.914062 66.664062 25.28125 C 64.625 26.644531 62.617188 28.054688 60.644531 29.519531 C 58.671875 30.980469 56.738281 32.492188 54.839844 34.046875 C 52.945312 35.605469 51.085938 37.207031 49.265625 38.855469 C 47.445312 40.507812 45.667969 42.199219 43.933594 43.933594 C 42.199219 45.667969 40.507812 47.445312 38.855469 49.265625 C 37.207031 51.085938 35.605469 52.945312 34.046875 54.839844 C 32.492188 56.738281 30.980469 58.671875 29.519531 60.644531 C 28.054688 62.617188 26.644531 64.625 25.28125 66.664062 C 23.914062 68.707031 22.601562 70.777344 21.339844 72.882812 C 20.078125 74.988281 18.867188 77.125 17.710938 79.289062 C 16.554688 81.457031 15.453125 83.648438 14.402344 85.867188 C 13.351562 88.085938 12.359375 90.328125 11.417969 92.597656 C 10.480469 94.867188 9.59375 97.15625 8.769531 99.464844 C 7.941406 101.777344 7.171875 104.109375 6.457031 106.457031 C 5.746094 108.804688 5.09375 111.171875 4.496094 113.554688 C 3.898438 115.933594 3.359375 118.328125 2.882812 120.738281 C 2.402344 123.144531 1.984375 125.5625 1.625 127.992188 C 1.261719 130.417969 0.964844 132.855469 0.722656 135.296875 C 0.480469 137.742188 0.300781 140.1875 0.179688 142.640625 C 0.0585938 145.089844 0 147.546875 0 150 C 0 152.453125 0.0585938 154.910156 0.179688 157.359375 C 0.300781 159.8125 0.480469 162.257812 0.722656 164.703125 C 0.964844 167.144531 1.261719 169.582031 1.625 172.007812 C 1.984375 174.4375 2.402344 176.855469 2.882812 179.261719 C 3.359375 181.671875 3.898438 184.066406 4.496094 186.445312 C 5.09375 188.828125 5.746094 191.195312 6.457031 193.542969 C 7.171875 195.890625 7.941406 198.222656 8.769531 200.535156 C 9.59375 202.84375 10.480469 205.132812 11.417969 207.402344 C 12.359375 209.671875 13.351562 211.914062 14.402344 214.132812 C 15.453125 216.351562 16.554688 218.542969 17.710938 220.710938 C 18.867188 222.875 20.078125 225.011719 21.339844 227.117188 C 22.601562 229.222656 23.914062 231.292969 25.28125 233.335938 C 26.644531 235.375 28.054688 237.382812 29.519531 239.355469 C 30.980469 241.328125 32.492188 243.261719 34.046875 245.160156 C 35.605469 247.054688 37.207031 248.914062 38.855469 250.734375 C 40.507812 252.554688 42.199219 254.332031 43.933594 256.066406 C 45.667969 257.800781 47.445312 259.492188 49.265625 261.144531 C 51.085938 262.792969 52.945312 264.394531 54.839844 265.953125 C 56.738281 267.507812 58.671875 269.019531 60.644531 270.480469 C 62.617188 271.945312 64.625 273.355469 66.664062 274.71875 C 68.707031 276.085938 70.777344 277.398438 72.882812 278.660156 C 74.988281 279.921875 77.125 281.132812 79.289062 282.289062 C 81.457031 283.445312 83.648438 284.546875 85.867188 285.597656 C 88.085938 286.648438 90.328125 287.640625 92.597656 288.582031 C 94.867188 289.519531 97.15625 290.40625 99.464844 291.230469 C 101.777344 292.058594 104.109375 292.828125 106.457031 293.542969 C 108.804688 294.253906 111.171875 294.90625 113.554688 295.503906 C 115.933594 296.101562 118.328125 296.640625 120.738281 297.117188 C 123.144531 297.597656 125.5625 298.015625 127.992188 298.375 C 130.417969 298.738281 132.855469 299.035156 135.296875 299.277344 C 137.742188 299.519531 140.1875 299.699219 142.640625 299.820312 C 145.089844 299.941406 147.546875 300 150 300 C 152.453125 300 154.910156 299.941406 157.359375 299.820312 C 159.8125 299.699219 162.257812 299.519531 164.703125 299.277344 C 167.144531 299.035156 169.582031 298.738281 172.007812 298.375 C 174.4375 298.015625 176.855469 297.597656 179.261719 297.117188 C 181.671875 296.640625 184.066406 296.101562 186.445312 295.503906 C 188.828125 294.90625 191.195312 294.253906 193.542969 293.539062 C 195.890625 292.828125 198.222656 292.058594 200.535156 291.230469 C 202.84375 290.40625 205.132812 289.519531 207.402344 288.582031 C 209.671875 287.640625 211.914062 286.648438 214.132812 285.597656 C 216.351562 284.546875 218.542969 283.445312 220.710938 282.289062 C 222.875 281.132812 225.011719 279.921875 227.117188 278.660156 C 229.222656 277.398438 231.292969 276.085938 233.335938 274.71875 C 235.375 273.355469 237.382812 271.945312 239.355469 270.480469 C 241.328125 269.019531 243.261719 267.507812 245.160156 265.953125 C 247.054688 264.394531 248.914062 262.792969 250.734375 261.144531 C 252.554688 259.492188 254.332031 257.800781 256.066406 256.066406 C 257.800781 254.332031 259.492188 252.554688 261.144531 250.734375 C 262.792969 248.914062 264.394531 247.054688 265.953125 245.160156 C 267.507812 243.261719 269.019531 241.328125 270.480469 239.355469 C 271.945312 237.382812 273.355469 235.375 274.71875 233.335938 C 276.085938 231.292969 277.398438 229.222656 278.660156 227.117188 C 279.921875 225.011719 281.132812 222.875 282.289062 220.710938 C 283.445312 218.542969 284.546875 216.351562 285.597656 214.132812 C 286.648438 211.914062 287.640625 209.671875 288.582031 207.402344 C 289.519531 205.132812 290.40625 202.84375 291.230469 200.535156 C 292.058594 198.222656 292.828125 195.890625 293.542969 193.542969 C 294.253906 191.195312 294.90625 188.828125 295.503906 186.445312 C 296.101562 184.066406 296.640625 181.671875 297.117188 179.261719 C 297.597656 176.855469 298.015625 174.4375 298.375 172.007812 C 298.738281 169.582031 299.035156 167.144531 299.277344 164.703125 C 299.519531 162.257812 299.699219 159.8125 299.820312 157.359375 C 299.941406 154.910156 300 152.453125 300 150 C 300 147.546875 299.9375 145.09375 299.820312 142.640625 C 299.699219 140.1875 299.515625 137.742188 299.277344 135.296875 C 299.035156 132.855469 298.734375 130.417969 298.375 127.992188 C 298.011719 125.5625 297.59375 123.144531 297.113281 120.738281 C 296.636719 118.332031 296.097656 115.9375 295.5 113.554688 C 294.902344 111.171875 294.25 108.808594 293.535156 106.460938 C 292.824219 104.109375 292.054688 101.78125 291.226562 99.46875 C 290.398438 97.15625 289.515625 94.867188 288.578125 92.601562 C 287.636719 90.332031 286.644531 88.089844 285.59375 85.871094 C 284.542969 83.652344 283.441406 81.460938 282.28125 79.292969 C 281.125 77.128906 279.914062 74.996094 278.652344 72.890625 C 277.390625 70.78125 276.078125 68.710938 274.714844 66.667969 C 273.351562 64.628906 271.9375 62.621094 270.476562 60.648438 C 269.011719 58.679688 267.503906 56.742188 265.945312 54.847656 C 264.386719 52.949219 262.785156 51.089844 261.136719 49.269531 C 259.488281 47.453125 257.796875 45.675781 256.058594 43.941406 C 254.324219 42.203125 252.546875 40.511719 250.730469 38.863281 C 248.910156 37.214844 247.050781 35.613281 245.152344 34.054688 C 243.257812 32.496094 241.320312 30.988281 239.351562 29.523438 C 237.378906 28.0625 235.371094 26.648438 233.332031 25.285156 C 231.289062 23.921875 229.214844 22.609375 227.109375 21.347656 C 225.003906 20.085938 222.871094 18.875 220.707031 17.71875 C 218.539062 16.558594 216.347656 15.457031 214.128906 14.40625 C 211.910156 13.355469 209.667969 12.363281 207.398438 11.421875 C 205.132812 10.484375 202.84375 9.601562 200.53125 8.773438 C 198.21875 7.945312 195.890625 7.175781 193.539062 6.464844 C 191.191406 5.75 188.828125 5.09375 186.445312 4.5 C 184.0625 3.902344 181.667969 3.363281 179.261719 2.886719 C 176.855469 2.40625 174.4375 1.988281 172.007812 1.625 C 169.582031 1.265625 167.144531 0.964844 164.703125 0.722656 C 162.257812 0.484375 159.8125 0.300781 157.359375 0.179688 C 154.90625 0.0625 152.453125 0 150 0 Z M 150 56.25 C 150.886719 56.25 151.773438 56.273438 152.660156 56.324219 C 153.546875 56.375 154.429688 56.453125 155.3125 56.554688 C 156.191406 56.65625 157.070312 56.785156 157.945312 56.9375 C 158.820312 57.089844 159.6875 57.269531 160.550781 57.472656 C 161.414062 57.675781 162.273438 57.902344 163.125 58.15625 C 163.972656 58.40625 164.816406 58.683594 165.652344 58.984375 C 166.484375 59.289062 167.3125 59.613281 168.125 59.960938 C 168.941406 60.3125 169.746094 60.683594 170.542969 61.078125 C 171.335938 61.476562 172.117188 61.894531 172.886719 62.335938 C 173.660156 62.773438 174.414062 63.238281 175.160156 63.722656 C 175.902344 64.207031 176.628906 64.714844 177.34375 65.242188 C 178.058594 65.769531 178.757812 66.316406 179.4375 66.882812 C 180.121094 67.449219 180.785156 68.035156 181.433594 68.640625 C 182.082031 69.246094 182.714844 69.871094 183.324219 70.515625 C 183.9375 71.15625 184.53125 71.816406 185.105469 72.492188 C 185.679688 73.167969 186.234375 73.863281 186.765625 74.570312 C 187.300781 75.28125 187.816406 76.003906 188.308594 76.742188 C 188.800781 77.480469 189.269531 78.230469 189.71875 78.996094 C 190.167969 79.761719 190.59375 80.542969 190.996094 81.332031 C 191.398438 82.121094 191.78125 82.921875 192.136719 83.734375 C 192.496094 84.546875 192.828125 85.371094 193.136719 86.203125 C 193.449219 87.03125 193.734375 87.871094 193.996094 88.722656 C 194.253906 89.570312 194.492188 90.425781 194.703125 91.285156 C 194.914062 92.148438 195.101562 93.015625 195.261719 93.886719 C 195.425781 94.761719 195.558594 95.636719 195.671875 96.515625 C 195.78125 97.398438 195.867188 98.28125 195.925781 99.164062 C 195.984375 100.050781 196.019531 100.9375 196.027344 101.824219 C 196.035156 102.710938 196.019531 103.597656 195.976562 104.484375 C 195.933594 105.371094 195.863281 106.257812 195.769531 107.136719 C 195.675781 108.019531 195.558594 108.898438 195.414062 109.773438 C 195.265625 110.652344 195.097656 111.519531 194.902344 112.386719 C 194.707031 113.253906 194.484375 114.113281 194.242188 114.964844 C 193.996094 115.816406 193.726562 116.664062 193.433594 117.5 C 193.136719 118.335938 192.820312 119.164062 192.480469 119.984375 C 192.136719 120.804688 191.769531 121.613281 191.382812 122.410156 C 190.992188 123.207031 190.582031 123.992188 190.148438 124.765625 C 189.714844 125.539062 189.257812 126.300781 188.78125 127.050781 C 188.300781 127.796875 187.800781 128.53125 187.28125 129.25 C 186.761719 129.96875 186.21875 130.667969 185.660156 131.355469 C 185.097656 132.042969 184.515625 132.714844 183.917969 133.367188 C 183.316406 134.023438 182.699219 134.660156 182.0625 135.277344 C 181.425781 135.894531 180.769531 136.492188 180.097656 137.074219 C 179.425781 137.652344 178.738281 138.214844 178.035156 138.753906 C 177.332031 139.292969 176.613281 139.8125 175.878906 140.3125 C 175.144531 140.8125 174.398438 141.289062 173.636719 141.742188 C 172.875 142.199219 172.101562 142.632812 171.3125 143.042969 C 170.527344 143.453125 169.730469 143.839844 168.917969 144.207031 C 168.109375 144.570312 167.292969 144.910156 166.460938 145.226562 C 165.632812 145.546875 164.796875 145.839844 163.949219 146.105469 C 163.105469 146.375 162.253906 146.621094 161.390625 146.839844 C 160.53125 147.058594 159.667969 147.253906 158.796875 147.421875 C 157.925781 147.589844 157.050781 147.734375 156.171875 147.851562 C 155.289062 147.972656 154.410156 148.066406 153.523438 148.132812 C 152.640625 148.199219 151.753906 148.242188 150.867188 148.257812 C 149.976562 148.273438 149.089844 148.265625 148.203125 148.230469 C 147.316406 148.195312 146.433594 148.132812 145.550781 148.046875 C 144.667969 147.960938 143.785156 147.851562 142.910156 147.710938 C 142.035156 147.574219 141.160156 147.414062 140.292969 147.226562 C 139.425781 147.039062 138.566406 146.824219 137.710938 146.585938 C 136.855469 146.351562 136.007812 146.089844 135.167969 145.800781 C 134.328125 145.515625 133.496094 145.203125 132.675781 144.871094 C 131.855469 144.535156 131.042969 144.175781 130.242188 143.796875 C 129.441406 143.414062 128.648438 143.007812 127.871094 142.582031 C 127.09375 142.15625 126.328125 141.707031 125.578125 141.234375 C 86.953125 116.765625 103.6875 56.71875 150 56.25 Z M 203.953125 243.75 L 96.046875 243.75 C 94.933594 243.746094 93.824219 243.691406 92.714844 243.582031 C 91.605469 243.46875 90.507812 243.304688 89.414062 243.085938 C 88.324219 242.867188 87.246094 242.59375 86.179688 242.269531 C 85.117188 241.945312 84.070312 241.570312 83.039062 241.140625 C 82.011719 240.714844 81.007812 240.238281 80.027344 239.710938 C 79.046875 239.183594 78.09375 238.613281 77.167969 237.992188 C 76.242188 237.375 75.347656 236.710938 74.488281 236.003906 C 73.628906 235.296875 72.804688 234.546875 72.019531 233.761719 C 71.230469 232.972656 70.484375 232.148438 69.78125 231.289062 C 69.074219 230.425781 68.410156 229.53125 67.792969 228.605469 C 67.175781 227.679688 66.605469 226.726562 66.078125 225.746094 C 65.554688 224.761719 65.078125 223.757812 64.652344 222.726562 C 64.226562 221.699219 63.851562 220.652344 63.527344 219.585938 C 63.207031 218.523438 62.9375 217.441406 62.71875 216.351562 C 62.5 215.257812 62.335938 214.160156 62.226562 213.050781 C 62.117188 211.941406 62.0625 210.832031 62.0625 209.71875 C 62.0625 180.890625 83.296875 156 113.765625 144.796875 C 115.019531 145.859375 116.316406 146.863281 117.660156 147.808594 C 119 148.753906 120.382812 149.640625 121.800781 150.46875 C 123.222656 151.292969 124.675781 152.054688 126.164062 152.753906 C 127.648438 153.449219 129.164062 154.082031 130.707031 154.644531 C 132.246094 155.210938 133.8125 155.707031 135.398438 156.132812 C 136.984375 156.5625 138.585938 156.917969 140.203125 157.207031 C 141.820312 157.492188 143.445312 157.707031 145.082031 157.851562 C 146.71875 157.996094 148.359375 158.070312 150 158.070312 C 151.640625 158.070312 153.28125 157.996094 154.917969 157.851562 C 156.554688 157.707031 158.179688 157.492188 159.796875 157.207031 C 161.414062 156.917969 163.015625 156.5625 164.601562 156.132812 C 166.1875 155.707031 167.753906 155.210938 169.292969 154.644531 C 170.835938 154.082031 172.351562 153.449219 173.835938 152.753906 C 175.324219 152.054688 176.777344 151.292969 178.199219 150.46875 C 179.617188 149.640625 181 148.753906 182.339844 147.808594 C 183.683594 146.863281 184.980469 145.859375 186.234375 144.796875 C 216.703125 156 237.9375 180.890625 237.9375 209.71875 C 237.9375 210.832031 237.882812 211.941406 237.773438 213.050781 C 237.664062 214.160156 237.5 215.257812 237.28125 216.351562 C 237.0625 217.441406 236.792969 218.523438 236.46875 219.585938 C 236.148438 220.652344 235.773438 221.699219 235.347656 222.726562 C 234.921875 223.757812 234.445312 224.761719 233.921875 225.746094 C 233.394531 226.726562 232.824219 227.679688 232.207031 228.605469 C 231.589844 229.53125 230.925781 230.425781 230.21875 231.289062 C 229.515625 232.148438 228.769531 232.972656 227.980469 233.761719 C 227.195312 234.546875 226.371094 235.296875 225.511719 236.003906 C 224.652344 236.710938 223.757812 237.375 222.832031 237.992188 C 221.90625 238.613281 220.953125 239.183594 219.972656 239.710938 C 218.992188 240.238281 217.988281 240.714844 216.960938 241.140625 C 215.929688 241.570312 214.882812 241.945312 213.820312 242.269531 C 212.753906 242.59375 211.675781 242.867188 210.585938 243.085938 C 209.492188 243.304688 208.394531 243.46875 207.285156 243.582031 C 206.175781 243.691406 205.066406 243.746094 203.953125 243.75 Z M 203.953125 243.75 " fill-opacity="1" fill-rule="nonzero"/></svg>