<svg xmlns="http://www.w3.org/2000/svg" xmlns:xlink="http://www.w3.org/1999/xlink" width="500" zoomAndPan="magnify" viewBox="0 0 375 149.999998" height="200" preserveAspectRatio="xMidYMid meet" version="1.0"><defs><g/><clipPath id="e943d5501a"><path d="M 74 42 L 163 42 L 163 147 L 74 147 Z M 74 42 " clip-rule="nonzero"/></clipPath><clipPath id="f665ebd9e8"><path d="M 31.140625 76.179688 L 133.972656 3.367188 L 183.8125 73.757812 L 80.980469 146.570312 Z M 31.140625 76.179688 " clip-rule="nonzero"/></clipPath><clipPath id="05c4576f7a"><path d="M 31.140625 76.179688 L 133.972656 3.367188 L 183.8125 73.757812 L 80.980469 146.570312 Z M 31.140625 76.179688 " clip-rule="nonzero"/></clipPath><clipPath id="0f43f513d0"><path d="M 52 3 L 141 3 L 141 108 L 52 108 Z M 52 3 " clip-rule="nonzero"/></clipPath><clipPath id="89d39621ad"><path d="M 31.140625 76.179688 L 133.972656 3.367188 L 183.8125 73.757812 L 80.980469 146.570312 Z M 31.140625 76.179688 " clip-rule="nonzero"/></clipPath><clipPath id="b8edaf4694"><path d="M 31.140625 76.179688 L 133.972656 3.367188 L 183.8125 73.757812 L 80.980469 146.570312 Z M 31.140625 76.179688 " clip-rule="nonzero"/></clipPath></defs><g clip-path="url(#e943d5501a)"><g clip-path="url(#f665ebd9e8)"><g clip-path="url(#05c4576f7a)"><path fill="#5271ff" d="M 113.996094 47.941406 L 82.363281 70.339844 C 82.039062 70.566406 81.746094 70.824219 81.472656 71.109375 C 81.203125 71.394531 80.964844 71.703125 80.753906 72.039062 C 80.542969 72.371094 80.367188 72.71875 80.226562 73.085938 C 80.085938 73.453125 79.984375 73.832031 79.917969 74.21875 C 79.851562 74.609375 79.824219 75 79.832031 75.390625 C 79.84375 75.785156 79.894531 76.171875 79.980469 76.554688 C 80.066406 76.941406 80.191406 77.3125 80.351562 77.667969 C 80.511719 78.027344 80.703125 78.367188 80.933594 78.691406 C 81.160156 79.011719 81.414062 79.304688 81.699219 79.578125 C 81.988281 79.847656 82.296875 80.085938 82.628906 80.296875 C 82.960938 80.503906 83.3125 80.679688 83.679688 80.820312 C 84.046875 80.960938 84.421875 81.066406 84.8125 81.132812 C 85.199219 81.195312 85.589844 81.226562 85.980469 81.214844 C 86.375 81.203125 86.765625 81.152344 87.148438 81.066406 C 87.53125 80.980469 87.902344 80.855469 88.261719 80.695312 C 88.621094 80.535156 88.960938 80.339844 89.28125 80.113281 L 120.914062 57.714844 C 121.417969 57.363281 121.933594 57.035156 122.46875 56.734375 C 123 56.433594 123.546875 56.15625 124.109375 55.910156 C 124.667969 55.660156 125.242188 55.441406 125.824219 55.25 C 126.40625 55.054688 126.996094 54.890625 127.59375 54.757812 C 128.191406 54.621094 128.792969 54.515625 129.402344 54.441406 C 130.011719 54.367188 130.621094 54.320312 131.234375 54.304688 C 131.847656 54.285156 132.457031 54.300781 133.070312 54.34375 C 133.679688 54.386719 134.289062 54.460938 134.890625 54.5625 C 135.496094 54.667969 136.09375 54.800781 136.683594 54.960938 C 137.277344 55.121094 137.859375 55.3125 138.429688 55.53125 C 139.003906 55.75 139.5625 55.996094 140.113281 56.269531 C 140.660156 56.542969 141.195312 56.839844 141.714844 57.164062 C 142.234375 57.492188 142.734375 57.839844 143.21875 58.214844 C 143.707031 58.589844 144.171875 58.988281 144.617188 59.40625 C 145.0625 59.828125 145.488281 60.269531 145.890625 60.730469 C 146.292969 61.191406 146.671875 61.671875 147.027344 62.167969 C 147.378906 62.671875 147.707031 63.1875 148.007812 63.722656 C 148.308594 64.253906 148.585938 64.800781 148.832031 65.363281 C 149.082031 65.921875 149.300781 66.492188 149.492188 67.074219 C 149.6875 67.65625 149.847656 68.246094 149.984375 68.84375 C 150.117188 69.441406 150.222656 70.046875 150.296875 70.652344 C 150.375 71.261719 150.417969 71.871094 150.433594 72.484375 C 150.449219 73.097656 150.4375 73.707031 150.394531 74.320312 C 150.347656 74.929688 150.273438 75.539062 150.171875 76.144531 C 150.066406 76.746094 149.9375 77.34375 149.773438 77.9375 C 149.613281 78.527344 149.421875 79.109375 149.203125 79.679688 C 148.984375 80.253906 148.738281 80.8125 148.464844 81.363281 C 148.191406 81.910156 147.890625 82.445312 147.566406 82.964844 C 147.238281 83.484375 146.890625 83.984375 146.515625 84.472656 C 146.140625 84.957031 145.742188 85.421875 145.320312 85.867188 C 144.902344 86.3125 144.460938 86.738281 143.996094 87.140625 C 143.535156 87.546875 143.054688 87.925781 142.554688 88.28125 L 74.136719 136.726562 L 81.054688 146.5 L 149.476562 98.054688 C 150.296875 97.472656 151.085938 96.847656 151.84375 96.1875 C 152.601562 95.527344 153.324219 94.832031 154.015625 94.101562 C 154.707031 93.371094 155.359375 92.609375 155.972656 91.8125 C 156.589844 91.019531 157.164062 90.195312 157.699219 89.34375 C 158.234375 88.492188 158.726562 87.617188 159.175781 86.71875 C 159.625 85.816406 160.03125 84.898438 160.390625 83.960938 C 160.75 83.019531 161.0625 82.066406 161.328125 81.097656 C 161.59375 80.128906 161.808594 79.148438 161.980469 78.15625 C 162.148438 77.167969 162.269531 76.171875 162.34375 75.167969 C 162.414062 74.164062 162.4375 73.160156 162.410156 72.15625 C 162.382812 71.152344 162.308594 70.152344 162.183594 69.152344 C 162.0625 68.15625 161.886719 67.167969 161.667969 66.1875 C 161.445312 65.207031 161.175781 64.238281 160.859375 63.285156 C 160.546875 62.332031 160.183594 61.394531 159.773438 60.476562 C 159.367188 59.558594 158.917969 58.664062 158.421875 57.789062 C 157.925781 56.914062 157.386719 56.066406 156.808594 55.246094 C 156.226562 54.425781 155.605469 53.640625 154.945312 52.882812 C 154.285156 52.121094 153.589844 51.398438 152.859375 50.710938 C 152.128906 50.019531 151.367188 49.367188 150.570312 48.753906 C 149.777344 48.136719 148.953125 47.5625 148.101562 47.027344 C 147.25 46.496094 146.375 46.003906 145.476562 45.554688 C 144.578125 45.105469 143.65625 44.703125 142.71875 44.34375 C 141.78125 43.984375 140.824219 43.671875 139.855469 43.410156 C 138.886719 43.144531 137.90625 42.925781 136.914062 42.757812 C 135.925781 42.589844 134.925781 42.46875 133.925781 42.398438 C 132.921875 42.324219 131.917969 42.304688 130.914062 42.332031 C 129.90625 42.355469 128.90625 42.433594 127.910156 42.558594 C 126.910156 42.683594 125.921875 42.855469 124.941406 43.078125 C 123.960938 43.300781 122.992188 43.570312 122.039062 43.886719 C 121.085938 44.203125 120.148438 44.566406 119.230469 44.972656 C 118.3125 45.382812 117.414062 45.832031 116.539062 46.328125 C 115.664062 46.824219 114.816406 47.363281 113.996094 47.941406 Z M 113.996094 47.941406 " fill-opacity="1" fill-rule="nonzero"/></g></g></g><g clip-path="url(#0f43f513d0)"><g clip-path="url(#89d39621ad)"><g clip-path="url(#b8edaf4694)"><path fill="#5271ff" d="M 65.464844 51.875 C 64.644531 52.460938 63.855469 53.082031 63.097656 53.742188 C 62.339844 54.402344 61.613281 55.097656 60.925781 55.828125 C 60.234375 56.558594 59.582031 57.324219 58.964844 58.117188 C 58.351562 58.914062 57.773438 59.734375 57.242188 60.585938 C 56.707031 61.4375 56.214844 62.3125 55.765625 63.214844 C 55.316406 64.113281 54.910156 65.03125 54.550781 65.972656 C 54.191406 66.910156 53.878906 67.863281 53.613281 68.832031 C 53.347656 69.804688 53.132812 70.78125 52.960938 71.773438 C 52.792969 72.765625 52.671875 73.761719 52.597656 74.765625 C 52.527344 75.765625 52.503906 76.769531 52.53125 77.773438 C 52.554688 78.777344 52.632812 79.78125 52.757812 80.777344 C 52.878906 81.773438 53.054688 82.761719 53.273438 83.742188 C 53.496094 84.722656 53.765625 85.691406 54.082031 86.644531 C 54.394531 87.597656 54.757812 88.535156 55.164062 89.453125 C 55.574219 90.371094 56.023438 91.269531 56.519531 92.140625 C 57.015625 93.015625 57.554688 93.863281 58.132812 94.6875 C 58.714844 95.503906 59.335938 96.292969 59.996094 97.050781 C 60.65625 97.808594 61.351562 98.53125 62.082031 99.222656 C 62.8125 99.910156 63.574219 100.5625 64.371094 101.179688 C 65.164062 101.792969 65.988281 102.367188 66.839844 102.902344 C 67.691406 103.4375 68.566406 103.929688 69.464844 104.375 C 70.363281 104.824219 71.285156 105.226562 72.222656 105.585938 C 73.160156 105.945312 74.117188 106.257812 75.085938 106.523438 C 76.054688 106.785156 77.035156 107.003906 78.027344 107.171875 C 79.015625 107.34375 80.011719 107.460938 81.015625 107.535156 C 82.019531 107.605469 83.023438 107.628906 84.027344 107.601562 C 85.03125 107.574219 86.035156 107.496094 87.03125 107.371094 C 88.027344 107.246094 89.019531 107.074219 90 106.851562 C 90.980469 106.628906 91.945312 106.359375 92.902344 106.042969 C 93.855469 105.726562 94.792969 105.367188 95.710938 104.957031 C 96.628906 104.550781 97.527344 104.097656 98.402344 103.601562 C 99.277344 103.105469 100.125 102.566406 100.945312 101.988281 L 132.578125 79.589844 C 132.898438 79.363281 133.195312 79.105469 133.464844 78.820312 C 133.734375 78.535156 133.976562 78.226562 134.183594 77.894531 C 134.394531 77.558594 134.566406 77.210938 134.707031 76.84375 C 134.847656 76.476562 134.953125 76.097656 135.019531 75.710938 C 135.085938 75.324219 135.113281 74.933594 135.101562 74.539062 C 135.089844 74.148438 135.042969 73.761719 134.957031 73.375 C 134.867188 72.992188 134.746094 72.621094 134.585938 72.265625 C 134.425781 71.90625 134.230469 71.566406 134.003906 71.246094 C 133.777344 70.925781 133.519531 70.628906 133.234375 70.359375 C 132.949219 70.089844 132.640625 69.847656 132.308594 69.640625 C 131.976562 69.429688 131.625 69.253906 131.257812 69.113281 C 130.890625 68.972656 130.515625 68.871094 130.128906 68.804688 C 129.742188 68.738281 129.351562 68.710938 128.957031 68.71875 C 128.5625 68.730469 128.175781 68.78125 127.792969 68.867188 C 127.410156 68.953125 127.039062 69.078125 126.679688 69.238281 C 126.320312 69.398438 125.980469 69.589844 125.660156 69.816406 L 94.027344 92.214844 C 93.523438 92.566406 93.007812 92.894531 92.472656 93.195312 C 91.941406 93.496094 91.390625 93.773438 90.832031 94.019531 C 90.273438 94.269531 89.699219 94.488281 89.117188 94.683594 C 88.535156 94.875 87.945312 95.039062 87.347656 95.171875 C 86.75 95.308594 86.148438 95.414062 85.539062 95.488281 C 84.929688 95.566406 84.320312 95.613281 83.707031 95.628906 C 83.09375 95.644531 82.484375 95.628906 81.871094 95.585938 C 81.261719 95.542969 80.652344 95.46875 80.046875 95.367188 C 79.445312 95.265625 78.847656 95.132812 78.253906 94.96875 C 77.664062 94.808594 77.082031 94.617188 76.511719 94.402344 C 75.9375 94.183594 75.375 93.9375 74.828125 93.664062 C 74.28125 93.390625 73.746094 93.089844 73.226562 92.765625 C 72.707031 92.441406 72.207031 92.089844 71.722656 91.714844 C 71.234375 91.339844 70.769531 90.945312 70.324219 90.523438 C 69.878906 90.105469 69.453125 89.664062 69.050781 89.203125 C 68.648438 88.742188 68.269531 88.261719 67.914062 87.761719 C 67.558594 87.261719 67.234375 86.742188 66.933594 86.210938 C 66.628906 85.675781 66.355469 85.128906 66.109375 84.570312 C 65.859375 84.007812 65.640625 83.4375 65.449219 82.855469 C 65.253906 82.273438 65.09375 81.683594 64.957031 81.085938 C 64.824219 80.488281 64.71875 79.886719 64.640625 79.277344 C 64.566406 78.671875 64.519531 78.058594 64.503906 77.449219 C 64.488281 76.835938 64.503906 76.222656 64.546875 75.613281 C 64.59375 75 64.664062 74.394531 64.769531 73.789062 C 64.871094 73.183594 65.003906 72.585938 65.167969 71.996094 C 65.328125 71.40625 65.519531 70.824219 65.738281 70.25 C 65.957031 69.679688 66.203125 69.117188 66.476562 68.570312 C 66.75 68.019531 67.050781 67.484375 67.375 66.96875 C 67.703125 66.449219 68.050781 65.945312 68.425781 65.460938 C 68.800781 64.976562 69.199219 64.511719 69.621094 64.0625 C 70.039062 63.617188 70.480469 63.191406 70.945312 62.789062 C 71.40625 62.386719 71.886719 62.007812 72.386719 61.652344 L 140.804688 13.207031 L 133.882812 3.429688 Z M 65.464844 51.875 " fill-opacity="1" fill-rule="nonzero"/></g></g></g><g fill="#000000" fill-opacity="1"><g transform="translate(174.227175, 65.915145)"><g><path d="M 12.484375 0.4375 C 10.296875 0.4375 8.132812 0.1875 6 -0.3125 C 3.875 -0.8125 2.164062 -1.46875 0.875 -2.28125 L 3.625 -8.5625 C 4.820312 -7.820312 6.242188 -7.234375 7.890625 -6.796875 C 9.535156 -6.359375 11.164062 -6.140625 12.78125 -6.140625 C 14.257812 -6.140625 15.3125 -6.289062 15.9375 -6.59375 C 16.570312 -6.90625 16.890625 -7.351562 16.890625 -7.9375 C 16.890625 -8.519531 16.507812 -8.929688 15.75 -9.171875 C 15 -9.410156 13.800781 -9.644531 12.15625 -9.875 C 10.050781 -10.132812 8.265625 -10.472656 6.796875 -10.890625 C 5.328125 -11.304688 4.0625 -12.078125 3 -13.203125 C 1.9375 -14.335938 1.40625 -15.921875 1.40625 -17.953125 C 1.40625 -19.628906 1.90625 -21.117188 2.90625 -22.421875 C 3.90625 -23.734375 5.363281 -24.769531 7.28125 -25.53125 C 9.207031 -26.289062 11.507812 -26.671875 14.1875 -26.671875 C 16.082031 -26.671875 17.96875 -26.476562 19.84375 -26.09375 C 21.71875 -25.707031 23.285156 -25.15625 24.546875 -24.4375 L 21.78125 -18.203125 C 19.457031 -19.492188 16.941406 -20.140625 14.234375 -20.140625 C 12.773438 -20.140625 11.707031 -19.96875 11.03125 -19.625 C 10.351562 -19.289062 10.015625 -18.847656 10.015625 -18.296875 C 10.015625 -17.679688 10.382812 -17.253906 11.125 -17.015625 C 11.875 -16.773438 13.101562 -16.523438 14.8125 -16.265625 C 16.976562 -15.941406 18.769531 -15.566406 20.1875 -15.140625 C 21.601562 -14.722656 22.835938 -13.957031 23.890625 -12.84375 C 24.941406 -11.738281 25.46875 -10.1875 25.46875 -8.1875 C 25.46875 -6.539062 24.960938 -5.0625 23.953125 -3.75 C 22.953125 -2.445312 21.476562 -1.421875 19.53125 -0.671875 C 17.582031 0.0664062 15.234375 0.4375 12.484375 0.4375 Z M 12.484375 0.4375 "/></g></g></g><g fill="#000000" fill-opacity="1"><g transform="translate(199.109776, 65.915145)"><g><path d="M 20.046875 -26.671875 C 23.296875 -26.671875 25.914062 -25.703125 27.90625 -23.765625 C 29.894531 -21.828125 30.890625 -18.90625 30.890625 -15 L 30.890625 0 L 21.6875 0 L 21.6875 -13.5 C 21.6875 -17.082031 20.25 -18.875 17.375 -18.875 C 15.789062 -18.875 14.523438 -18.359375 13.578125 -17.328125 C 12.628906 -16.296875 12.15625 -14.75 12.15625 -12.6875 L 12.15625 0 L 2.953125 0 L 2.953125 -26.234375 L 11.71875 -26.234375 L 11.71875 -23.375 C 12.75 -24.445312 13.972656 -25.265625 15.390625 -25.828125 C 16.804688 -26.390625 18.359375 -26.671875 20.046875 -26.671875 Z M 20.046875 -26.671875 "/></g></g></g><g fill="#000000" fill-opacity="1"><g transform="translate(231.205485, 65.915145)"><g><path d="M 14.140625 -26.671875 C 18.492188 -26.671875 21.816406 -25.675781 24.109375 -23.6875 C 26.398438 -21.707031 27.546875 -18.671875 27.546875 -14.578125 L 27.546875 0 L 18.96875 0 L 18.96875 -3.390625 C 17.644531 -0.835938 15.066406 0.4375 11.234375 0.4375 C 9.203125 0.4375 7.441406 0.0820312 5.953125 -0.625 C 4.472656 -1.332031 3.351562 -2.289062 2.59375 -3.5 C 1.832031 -4.71875 1.453125 -6.097656 1.453125 -7.640625 C 1.453125 -10.128906 2.40625 -12.054688 4.3125 -13.421875 C 6.21875 -14.796875 9.15625 -15.484375 13.125 -15.484375 L 18.34375 -15.484375 C 18.1875 -18.265625 16.332031 -19.65625 12.78125 -19.65625 C 11.519531 -19.65625 10.242188 -19.453125 8.953125 -19.046875 C 7.660156 -18.640625 6.5625 -18.082031 5.65625 -17.375 L 2.5625 -23.625 C 4.019531 -24.59375 5.785156 -25.34375 7.859375 -25.875 C 9.941406 -26.40625 12.035156 -26.671875 14.140625 -26.671875 Z M 13.796875 -5.375 C 14.859375 -5.375 15.789062 -5.628906 16.59375 -6.140625 C 17.40625 -6.660156 17.988281 -7.421875 18.34375 -8.421875 L 18.34375 -10.703125 L 14.375 -10.703125 C 11.695312 -10.703125 10.359375 -9.8125 10.359375 -8.03125 C 10.359375 -7.226562 10.664062 -6.582031 11.28125 -6.09375 C 11.894531 -5.613281 12.734375 -5.375 13.796875 -5.375 Z M 13.796875 -5.375 "/></g></g></g><g fill="#000000" fill-opacity="1"><g transform="translate(260.009301, 65.915145)"><g><path d="M 19.453125 -26.671875 C 21.847656 -26.671875 24.019531 -26.113281 25.96875 -25 C 27.925781 -23.882812 29.472656 -22.300781 30.609375 -20.25 C 31.753906 -18.207031 32.328125 -15.832031 32.328125 -13.125 C 32.328125 -10.40625 31.753906 -8.019531 30.609375 -5.96875 C 29.472656 -3.925781 27.925781 -2.347656 25.96875 -1.234375 C 24.019531 -0.117188 21.847656 0.4375 19.453125 0.4375 C 16.390625 0.4375 13.957031 -0.484375 12.15625 -2.328125 L 12.15625 9.390625 L 2.953125 9.390625 L 2.953125 -26.234375 L 11.71875 -26.234375 L 11.71875 -23.625 C 13.425781 -25.65625 16.003906 -26.671875 19.453125 -26.671875 Z M 17.515625 -6.875 C 19.128906 -6.875 20.453125 -7.429688 21.484375 -8.546875 C 22.523438 -9.660156 23.046875 -11.1875 23.046875 -13.125 C 23.046875 -15.050781 22.523438 -16.570312 21.484375 -17.6875 C 20.453125 -18.800781 19.128906 -19.359375 17.515625 -19.359375 C 15.910156 -19.359375 14.585938 -18.800781 13.546875 -17.6875 C 12.515625 -16.570312 12 -15.050781 12 -13.125 C 12 -11.1875 12.515625 -9.660156 13.546875 -8.546875 C 14.585938 -7.429688 15.910156 -6.875 17.515625 -6.875 Z M 17.515625 -6.875 "/></g></g></g><g fill="#000000" fill-opacity="1"><g transform="translate(174.227175, 116.915142)"><g><path d="M 12.484375 0.4375 C 10.296875 0.4375 8.132812 0.1875 6 -0.3125 C 3.875 -0.8125 2.164062 -1.46875 0.875 -2.28125 L 3.625 -8.5625 C 4.820312 -7.820312 6.242188 -7.234375 7.890625 -6.796875 C 9.535156 -6.359375 11.164062 -6.140625 12.78125 -6.140625 C 14.257812 -6.140625 15.3125 -6.289062 15.9375 -6.59375 C 16.570312 -6.90625 16.890625 -7.351562 16.890625 -7.9375 C 16.890625 -8.519531 16.507812 -8.929688 15.75 -9.171875 C 15 -9.410156 13.800781 -9.644531 12.15625 -9.875 C 10.050781 -10.132812 8.265625 -10.472656 6.796875 -10.890625 C 5.328125 -11.304688 4.0625 -12.078125 3 -13.203125 C 1.9375 -14.335938 1.40625 -15.921875 1.40625 -17.953125 C 1.40625 -19.628906 1.90625 -21.117188 2.90625 -22.421875 C 3.90625 -23.734375 5.363281 -24.769531 7.28125 -25.53125 C 9.207031 -26.289062 11.507812 -26.671875 14.1875 -26.671875 C 16.082031 -26.671875 17.96875 -26.476562 19.84375 -26.09375 C 21.71875 -25.707031 23.285156 -25.15625 24.546875 -24.4375 L 21.78125 -18.203125 C 19.457031 -19.492188 16.941406 -20.140625 14.234375 -20.140625 C 12.773438 -20.140625 11.707031 -19.96875 11.03125 -19.625 C 10.351562 -19.289062 10.015625 -18.847656 10.015625 -18.296875 C 10.015625 -17.679688 10.382812 -17.253906 11.125 -17.015625 C 11.875 -16.773438 13.101562 -16.523438 14.8125 -16.265625 C 16.976562 -15.941406 18.769531 -15.566406 20.1875 -15.140625 C 21.601562 -14.722656 22.835938 -13.957031 23.890625 -12.84375 C 24.941406 -11.738281 25.46875 -10.1875 25.46875 -8.1875 C 25.46875 -6.539062 24.960938 -5.0625 23.953125 -3.75 C 22.953125 -2.445312 21.476562 -1.421875 19.53125 -0.671875 C 17.582031 0.0664062 15.234375 0.4375 12.484375 0.4375 Z M 12.484375 0.4375 "/></g></g></g><g fill="#000000" fill-opacity="1"><g transform="translate(199.109776, 116.915142)"><g><path d="M 29.765625 -13.0625 C 29.765625 -13 29.71875 -12.242188 29.625 -10.796875 L 10.546875 -10.796875 C 10.941406 -9.441406 11.691406 -8.398438 12.796875 -7.671875 C 13.910156 -6.941406 15.304688 -6.578125 16.984375 -6.578125 C 18.242188 -6.578125 19.332031 -6.753906 20.25 -7.109375 C 21.175781 -7.460938 22.109375 -8.046875 23.046875 -8.859375 L 27.875 -3.828125 C 25.332031 -0.984375 21.609375 0.4375 16.703125 0.4375 C 13.640625 0.4375 10.941406 -0.140625 8.609375 -1.296875 C 6.285156 -2.460938 4.488281 -4.078125 3.21875 -6.140625 C 1.945312 -8.210938 1.3125 -10.554688 1.3125 -13.171875 C 1.3125 -15.742188 1.929688 -18.054688 3.171875 -20.109375 C 4.410156 -22.160156 6.128906 -23.765625 8.328125 -24.921875 C 10.523438 -26.085938 12.992188 -26.671875 15.734375 -26.671875 C 18.347656 -26.671875 20.71875 -26.128906 22.84375 -25.046875 C 24.976562 -23.960938 26.664062 -22.394531 27.90625 -20.34375 C 29.144531 -18.300781 29.765625 -15.875 29.765625 -13.0625 Z M 15.78125 -20.140625 C 14.363281 -20.140625 13.175781 -19.734375 12.21875 -18.921875 C 11.269531 -18.117188 10.664062 -17.023438 10.40625 -15.640625 L 21.15625 -15.640625 C 20.894531 -17.023438 20.285156 -18.117188 19.328125 -18.921875 C 18.378906 -19.734375 17.195312 -20.140625 15.78125 -20.140625 Z M 15.78125 -20.140625 "/></g></g></g><g fill="#000000" fill-opacity="1"><g transform="translate(228.591334, 116.915142)"><g><path d="M 29.765625 -13.0625 C 29.765625 -13 29.71875 -12.242188 29.625 -10.796875 L 10.546875 -10.796875 C 10.941406 -9.441406 11.691406 -8.398438 12.796875 -7.671875 C 13.910156 -6.941406 15.304688 -6.578125 16.984375 -6.578125 C 18.242188 -6.578125 19.332031 -6.753906 20.25 -7.109375 C 21.175781 -7.460938 22.109375 -8.046875 23.046875 -8.859375 L 27.875 -3.828125 C 25.332031 -0.984375 21.609375 0.4375 16.703125 0.4375 C 13.640625 0.4375 10.941406 -0.140625 8.609375 -1.296875 C 6.285156 -2.460938 4.488281 -4.078125 3.21875 -6.140625 C 1.945312 -8.210938 1.3125 -10.554688 1.3125 -13.171875 C 1.3125 -15.742188 1.929688 -18.054688 3.171875 -20.109375 C 4.410156 -22.160156 6.128906 -23.765625 8.328125 -24.921875 C 10.523438 -26.085938 12.992188 -26.671875 15.734375 -26.671875 C 18.347656 -26.671875 20.71875 -26.128906 22.84375 -25.046875 C 24.976562 -23.960938 26.664062 -22.394531 27.90625 -20.34375 C 29.144531 -18.300781 29.765625 -15.875 29.765625 -13.0625 Z M 15.78125 -20.140625 C 14.363281 -20.140625 13.175781 -19.734375 12.21875 -18.921875 C 11.269531 -18.117188 10.664062 -17.023438 10.40625 -15.640625 L 21.15625 -15.640625 C 20.894531 -17.023438 20.285156 -18.117188 19.328125 -18.921875 C 18.378906 -19.734375 17.195312 -20.140625 15.78125 -20.140625 Z M 15.78125 -20.140625 "/></g></g></g><g fill="#000000" fill-opacity="1"><g transform="translate(258.072892, 116.915142)"><g><path d="M 14.859375 -9.203125 L 12.15625 -6.4375 L 12.15625 0 L 2.953125 0 L 2.953125 -35.921875 L 12.15625 -35.921875 L 12.15625 -17.09375 L 21.546875 -26.234375 L 32.4375 -26.234375 L 21.546875 -15 L 33.359375 0 L 22.21875 0 Z M 14.859375 -9.203125 "/></g></g></g><g fill="#000000" fill-opacity="1"><g transform="translate(289.684493, 116.915142)"><g><path d="M 29.765625 -13.0625 C 29.765625 -13 29.71875 -12.242188 29.625 -10.796875 L 10.546875 -10.796875 C 10.941406 -9.441406 11.691406 -8.398438 12.796875 -7.671875 C 13.910156 -6.941406 15.304688 -6.578125 16.984375 -6.578125 C 18.242188 -6.578125 19.332031 -6.753906 20.25 -7.109375 C 21.175781 -7.460938 22.109375 -8.046875 23.046875 -8.859375 L 27.875 -3.828125 C 25.332031 -0.984375 21.609375 0.4375 16.703125 0.4375 C 13.640625 0.4375 10.941406 -0.140625 8.609375 -1.296875 C 6.285156 -2.460938 4.488281 -4.078125 3.21875 -6.140625 C 1.945312 -8.210938 1.3125 -10.554688 1.3125 -13.171875 C 1.3125 -15.742188 1.929688 -18.054688 3.171875 -20.109375 C 4.410156 -22.160156 6.128906 -23.765625 8.328125 -24.921875 C 10.523438 -26.085938 12.992188 -26.671875 15.734375 -26.671875 C 18.347656 -26.671875 20.71875 -26.128906 22.84375 -25.046875 C 24.976562 -23.960938 26.664062 -22.394531 27.90625 -20.34375 C 29.144531 -18.300781 29.765625 -15.875 29.765625 -13.0625 Z M 15.78125 -20.140625 C 14.363281 -20.140625 13.175781 -19.734375 12.21875 -18.921875 C 11.269531 -18.117188 10.664062 -17.023438 10.40625 -15.640625 L 21.15625 -15.640625 C 20.894531 -17.023438 20.285156 -18.117188 19.328125 -18.921875 C 18.378906 -19.734375 17.195312 -20.140625 15.78125 -20.140625 Z M 15.78125 -20.140625 "/></g></g></g><g fill="#000000" fill-opacity="1"><g transform="translate(319.166051, 116.915142)"><g><path d="M 11.71875 -23.09375 C 12.65625 -24.28125 13.875 -25.171875 15.375 -25.765625 C 16.875 -26.367188 18.59375 -26.671875 20.53125 -26.671875 L 20.53125 -18.390625 C 19.6875 -18.492188 18.988281 -18.546875 18.4375 -18.546875 C 16.46875 -18.546875 14.925781 -18.007812 13.8125 -16.9375 C 12.707031 -15.875 12.15625 -14.242188 12.15625 -12.046875 L 12.15625 0 L 2.953125 0 L 2.953125 -26.234375 L 11.71875 -26.234375 Z M 11.71875 -23.09375 "/></g></g></g></svg>