<svg xmlns="http://www.w3.org/2000/svg" xmlns:xlink="http://www.w3.org/1999/xlink" width="500" zoomAndPan="magnify" viewBox="0 0 375 262.499992" height="350" preserveAspectRatio="xMidYMid meet" version="1.0"><defs><g/></defs><g fill="#000000" fill-opacity="1"><g transform="translate(1.654969, 112.359417)"><g><path d="M 27.78125 0.96875 C 22.894531 0.96875 18.082031 0.410156 13.34375 -0.703125 C 8.613281 -1.816406 4.8125 -3.269531 1.9375 -5.0625 L 8.078125 -19.0625 C 10.734375 -17.40625 13.890625 -16.09375 17.546875 -15.125 C 21.210938 -14.15625 24.835938 -13.671875 28.421875 -13.671875 C 31.722656 -13.671875 34.070312 -14.007812 35.46875 -14.6875 C 36.875 -15.375 37.578125 -16.363281 37.578125 -17.65625 C 37.578125 -18.945312 36.734375 -19.863281 35.046875 -20.40625 C 33.359375 -20.945312 30.6875 -21.46875 27.03125 -21.96875 C 22.363281 -22.539062 18.394531 -23.289062 15.125 -24.21875 C 11.863281 -25.15625 9.046875 -26.878906 6.671875 -29.390625 C 4.304688 -31.898438 3.125 -35.421875 3.125 -39.953125 C 3.125 -43.679688 4.234375 -47 6.453125 -49.90625 C 8.679688 -52.8125 11.929688 -55.109375 16.203125 -56.796875 C 20.472656 -58.484375 25.585938 -59.328125 31.546875 -59.328125 C 35.785156 -59.328125 39.984375 -58.894531 44.140625 -58.03125 C 48.304688 -57.175781 51.789062 -55.957031 54.59375 -54.375 L 48.453125 -40.484375 C 43.285156 -43.359375 37.6875 -44.796875 31.65625 -44.796875 C 28.425781 -44.796875 26.054688 -44.414062 24.546875 -43.65625 C 23.035156 -42.90625 22.28125 -41.921875 22.28125 -40.703125 C 22.28125 -39.335938 23.101562 -38.382812 24.75 -37.84375 C 26.40625 -37.3125 29.140625 -36.753906 32.953125 -36.171875 C 37.753906 -35.453125 41.734375 -34.625 44.890625 -33.6875 C 48.054688 -32.757812 50.804688 -31.054688 53.140625 -28.578125 C 55.472656 -26.109375 56.640625 -22.648438 56.640625 -18.203125 C 56.640625 -14.535156 55.523438 -11.25 53.296875 -8.34375 C 51.066406 -5.4375 47.78125 -3.15625 43.4375 -1.5 C 39.101562 0.144531 33.882812 0.96875 27.78125 0.96875 Z M 27.78125 0.96875 "/></g></g></g><g fill="#000000" fill-opacity="1"><g transform="translate(56.991624, 112.359417)"><g><path d="M 44.578125 -59.328125 C 51.828125 -59.328125 57.65625 -57.171875 62.0625 -52.859375 C 66.476562 -48.554688 68.6875 -42.0625 68.6875 -33.375 L 68.6875 0 L 48.234375 0 L 48.234375 -30.046875 C 48.234375 -38.003906 45.039062 -41.984375 38.65625 -41.984375 C 35.132812 -41.984375 32.316406 -40.832031 30.203125 -38.53125 C 28.085938 -36.238281 27.03125 -32.796875 27.03125 -28.203125 L 27.03125 0 L 6.5625 0 L 6.5625 -58.359375 L 26.0625 -58.359375 L 26.0625 -52 C 28.351562 -54.375 31.078125 -56.1875 34.234375 -57.4375 C 37.398438 -58.695312 40.847656 -59.328125 44.578125 -59.328125 Z M 44.578125 -59.328125 "/></g></g></g><g fill="#000000" fill-opacity="1"><g transform="translate(128.369584, 112.359417)"><g><path d="M 31.4375 -59.328125 C 41.125 -59.328125 48.515625 -57.117188 53.609375 -52.703125 C 58.710938 -48.285156 61.265625 -41.519531 61.265625 -32.40625 L 61.265625 0 L 42.203125 0 L 42.203125 -7.53125 C 39.265625 -1.863281 33.523438 0.96875 24.984375 0.96875 C 20.460938 0.96875 16.550781 0.179688 13.25 -1.390625 C 9.945312 -2.972656 7.453125 -5.109375 5.765625 -7.796875 C 4.078125 -10.492188 3.234375 -13.566406 3.234375 -17.015625 C 3.234375 -22.535156 5.347656 -26.820312 9.578125 -29.875 C 13.816406 -32.925781 20.347656 -34.453125 29.171875 -34.453125 L 40.8125 -34.453125 C 40.445312 -40.628906 36.316406 -43.71875 28.421875 -43.71875 C 25.617188 -43.71875 22.78125 -43.265625 19.90625 -42.359375 C 17.039062 -41.460938 14.601562 -40.226562 12.59375 -38.65625 L 5.703125 -52.546875 C 8.929688 -54.703125 12.859375 -56.367188 17.484375 -57.546875 C 22.117188 -58.734375 26.769531 -59.328125 31.4375 -59.328125 Z M 30.6875 -11.953125 C 33.050781 -11.953125 35.128906 -12.523438 36.921875 -13.671875 C 38.722656 -14.816406 40.019531 -16.503906 40.8125 -18.734375 L 40.8125 -23.796875 L 31.984375 -23.796875 C 26.023438 -23.796875 23.046875 -21.820312 23.046875 -17.875 C 23.046875 -16.082031 23.726562 -14.644531 25.09375 -13.5625 C 26.457031 -12.488281 28.320312 -11.953125 30.6875 -11.953125 Z M 30.6875 -11.953125 "/></g></g></g><g fill="#000000" fill-opacity="1"><g transform="translate(192.426683, 112.359417)"><g><path d="M 43.28125 -59.328125 C 48.59375 -59.328125 53.421875 -58.085938 57.765625 -55.609375 C 62.109375 -53.128906 65.550781 -49.609375 68.09375 -45.046875 C 70.644531 -40.492188 71.921875 -35.203125 71.921875 -29.171875 C 71.921875 -23.148438 70.644531 -17.859375 68.09375 -13.296875 C 65.550781 -8.734375 62.109375 -5.210938 57.765625 -2.734375 C 53.421875 -0.265625 48.59375 0.96875 43.28125 0.96875 C 36.46875 0.96875 31.050781 -1.078125 27.03125 -5.171875 L 27.03125 20.890625 L 6.5625 20.890625 L 6.5625 -58.359375 L 26.0625 -58.359375 L 26.0625 -52.546875 C 29.863281 -57.066406 35.601562 -59.328125 43.28125 -59.328125 Z M 38.984375 -15.296875 C 42.566406 -15.296875 45.503906 -16.53125 47.796875 -19 C 50.097656 -21.476562 51.25 -24.867188 51.25 -29.171875 C 51.25 -33.484375 50.097656 -36.875 47.796875 -39.34375 C 45.503906 -41.820312 42.566406 -43.0625 38.984375 -43.0625 C 35.390625 -43.0625 32.441406 -41.820312 30.140625 -39.34375 C 27.847656 -36.875 26.703125 -33.484375 26.703125 -29.171875 C 26.703125 -24.867188 27.847656 -21.476562 30.140625 -19 C 32.441406 -16.53125 35.390625 -15.296875 38.984375 -15.296875 Z M 38.984375 -15.296875 "/></g></g></g><g fill="#000000" fill-opacity="1"><g transform="translate(263.696971, 112.359417)"><g><path d="M 15.1875 0.96875 C 11.738281 0.96875 8.828125 -0.175781 6.453125 -2.46875 C 4.085938 -4.769531 2.90625 -7.679688 2.90625 -11.203125 C 2.90625 -14.785156 4.070312 -17.6875 6.40625 -19.90625 C 8.738281 -22.132812 11.664062 -23.25 15.1875 -23.25 C 18.769531 -23.25 21.707031 -22.132812 24 -19.90625 C 26.300781 -17.6875 27.453125 -14.785156 27.453125 -11.203125 C 27.453125 -7.679688 26.285156 -4.769531 23.953125 -2.46875 C 21.617188 -0.175781 18.695312 0.96875 15.1875 0.96875 Z M 15.1875 0.96875 "/></g></g></g><g fill="#000000" fill-opacity="1"><g transform="translate(1.654969, 225.98102)"><g><path d="M 27.78125 0.96875 C 22.894531 0.96875 18.082031 0.410156 13.34375 -0.703125 C 8.613281 -1.816406 4.8125 -3.269531 1.9375 -5.0625 L 8.078125 -19.0625 C 10.734375 -17.40625 13.890625 -16.09375 17.546875 -15.125 C 21.210938 -14.15625 24.835938 -13.671875 28.421875 -13.671875 C 31.722656 -13.671875 34.070312 -14.007812 35.46875 -14.6875 C 36.875 -15.375 37.578125 -16.363281 37.578125 -17.65625 C 37.578125 -18.945312 36.734375 -19.863281 35.046875 -20.40625 C 33.359375 -20.945312 30.6875 -21.46875 27.03125 -21.96875 C 22.363281 -22.539062 18.394531 -23.289062 15.125 -24.21875 C 11.863281 -25.15625 9.046875 -26.878906 6.671875 -29.390625 C 4.304688 -31.898438 3.125 -35.421875 3.125 -39.953125 C 3.125 -43.679688 4.234375 -47 6.453125 -49.90625 C 8.679688 -52.8125 11.929688 -55.109375 16.203125 -56.796875 C 20.472656 -58.484375 25.585938 -59.328125 31.546875 -59.328125 C 35.785156 -59.328125 39.984375 -58.894531 44.140625 -58.03125 C 48.304688 -57.175781 51.789062 -55.957031 54.59375 -54.375 L 48.453125 -40.484375 C 43.285156 -43.359375 37.6875 -44.796875 31.65625 -44.796875 C 28.425781 -44.796875 26.054688 -44.414062 24.546875 -43.65625 C 23.035156 -42.90625 22.28125 -41.921875 22.28125 -40.703125 C 22.28125 -39.335938 23.101562 -38.382812 24.75 -37.84375 C 26.40625 -37.3125 29.140625 -36.753906 32.953125 -36.171875 C 37.753906 -35.453125 41.734375 -34.625 44.890625 -33.6875 C 48.054688 -32.757812 50.804688 -31.054688 53.140625 -28.578125 C 55.472656 -26.109375 56.640625 -22.648438 56.640625 -18.203125 C 56.640625 -14.535156 55.523438 -11.25 53.296875 -8.34375 C 51.066406 -5.4375 47.78125 -3.15625 43.4375 -1.5 C 39.101562 0.144531 33.882812 0.96875 27.78125 0.96875 Z M 27.78125 0.96875 "/></g></g></g><g fill="#000000" fill-opacity="1"><g transform="translate(56.991624, 225.98102)"><g><path d="M 66.21875 -29.078125 C 66.21875 -28.929688 66.109375 -27.242188 65.890625 -24.015625 L 23.46875 -24.015625 C 24.332031 -20.992188 26 -18.675781 28.46875 -17.0625 C 30.945312 -15.445312 34.054688 -14.640625 37.796875 -14.640625 C 40.585938 -14.640625 43.003906 -15.035156 45.046875 -15.828125 C 47.097656 -16.617188 49.164062 -17.910156 51.25 -19.703125 L 62.015625 -8.5 C 56.347656 -2.1875 48.054688 0.96875 37.140625 0.96875 C 30.328125 0.96875 24.332031 -0.320312 19.15625 -2.90625 C 13.988281 -5.488281 9.988281 -9.078125 7.15625 -13.671875 C 4.320312 -18.265625 2.90625 -23.46875 2.90625 -29.28125 C 2.90625 -35.03125 4.285156 -40.179688 7.046875 -44.734375 C 9.816406 -49.296875 13.640625 -52.867188 18.515625 -55.453125 C 23.398438 -58.035156 28.894531 -59.328125 35 -59.328125 C 40.8125 -59.328125 46.082031 -58.125 50.8125 -55.71875 C 55.550781 -53.3125 59.300781 -49.828125 62.0625 -45.265625 C 64.832031 -40.710938 66.21875 -35.316406 66.21875 -29.078125 Z M 35.09375 -44.796875 C 31.9375 -44.796875 29.300781 -43.894531 27.1875 -42.09375 C 25.070312 -40.300781 23.726562 -37.863281 23.15625 -34.78125 L 47.046875 -34.78125 C 46.472656 -37.863281 45.128906 -40.300781 43.015625 -42.09375 C 40.898438 -43.894531 38.257812 -44.796875 35.09375 -44.796875 Z M 35.09375 -44.796875 "/></g></g></g><g fill="#000000" fill-opacity="1"><g transform="translate(122.555954, 225.98102)"><g><path d="M 66.21875 -29.078125 C 66.21875 -28.929688 66.109375 -27.242188 65.890625 -24.015625 L 23.46875 -24.015625 C 24.332031 -20.992188 26 -18.675781 28.46875 -17.0625 C 30.945312 -15.445312 34.054688 -14.640625 37.796875 -14.640625 C 40.585938 -14.640625 43.003906 -15.035156 45.046875 -15.828125 C 47.097656 -16.617188 49.164062 -17.910156 51.25 -19.703125 L 62.015625 -8.5 C 56.347656 -2.1875 48.054688 0.96875 37.140625 0.96875 C 30.328125 0.96875 24.332031 -0.320312 19.15625 -2.90625 C 13.988281 -5.488281 9.988281 -9.078125 7.15625 -13.671875 C 4.320312 -18.265625 2.90625 -23.46875 2.90625 -29.28125 C 2.90625 -35.03125 4.285156 -40.179688 7.046875 -44.734375 C 9.816406 -49.296875 13.640625 -52.867188 18.515625 -55.453125 C 23.398438 -58.035156 28.894531 -59.328125 35 -59.328125 C 40.8125 -59.328125 46.082031 -58.125 50.8125 -55.71875 C 55.550781 -53.3125 59.300781 -49.828125 62.0625 -45.265625 C 64.832031 -40.710938 66.21875 -35.316406 66.21875 -29.078125 Z M 35.09375 -44.796875 C 31.9375 -44.796875 29.300781 -43.894531 27.1875 -42.09375 C 25.070312 -40.300781 23.726562 -37.863281 23.15625 -34.78125 L 47.046875 -34.78125 C 46.472656 -37.863281 45.128906 -40.300781 43.015625 -42.09375 C 40.898438 -43.894531 38.257812 -44.796875 35.09375 -44.796875 Z M 35.09375 -44.796875 "/></g></g></g><g fill="#000000" fill-opacity="1"><g transform="translate(188.120285, 225.98102)"><g><path d="M 33.0625 -20.453125 L 27.03125 -14.328125 L 27.03125 0 L 6.5625 0 L 6.5625 -79.890625 L 27.03125 -79.890625 L 27.03125 -38.015625 L 47.90625 -58.359375 L 72.140625 -58.359375 L 47.90625 -33.375 L 74.1875 0 L 49.421875 0 Z M 33.0625 -20.453125 "/></g></g></g><g fill="#000000" fill-opacity="1"><g transform="translate(258.421651, 225.98102)"><g><path d="M 66.21875 -29.078125 C 66.21875 -28.929688 66.109375 -27.242188 65.890625 -24.015625 L 23.46875 -24.015625 C 24.332031 -20.992188 26 -18.675781 28.46875 -17.0625 C 30.945312 -15.445312 34.054688 -14.640625 37.796875 -14.640625 C 40.585938 -14.640625 43.003906 -15.035156 45.046875 -15.828125 C 47.097656 -16.617188 49.164062 -17.910156 51.25 -19.703125 L 62.015625 -8.5 C 56.347656 -2.1875 48.054688 0.96875 37.140625 0.96875 C 30.328125 0.96875 24.332031 -0.320312 19.15625 -2.90625 C 13.988281 -5.488281 9.988281 -9.078125 7.15625 -13.671875 C 4.320312 -18.265625 2.90625 -23.46875 2.90625 -29.28125 C 2.90625 -35.03125 4.285156 -40.179688 7.046875 -44.734375 C 9.816406 -49.296875 13.640625 -52.867188 18.515625 -55.453125 C 23.398438 -58.035156 28.894531 -59.328125 35 -59.328125 C 40.8125 -59.328125 46.082031 -58.125 50.8125 -55.71875 C 55.550781 -53.3125 59.300781 -49.828125 62.0625 -45.265625 C 64.832031 -40.710938 66.21875 -35.316406 66.21875 -29.078125 Z M 35.09375 -44.796875 C 31.9375 -44.796875 29.300781 -43.894531 27.1875 -42.09375 C 25.070312 -40.300781 23.726562 -37.863281 23.15625 -34.78125 L 47.046875 -34.78125 C 46.472656 -37.863281 45.128906 -40.300781 43.015625 -42.09375 C 40.898438 -43.894531 38.257812 -44.796875 35.09375 -44.796875 Z M 35.09375 -44.796875 "/></g></g></g><g fill="#000000" fill-opacity="1"><g transform="translate(323.985968, 225.98102)"><g><path d="M 26.0625 -51.359375 C 28.132812 -54.015625 30.835938 -56.003906 34.171875 -57.328125 C 37.515625 -58.660156 41.34375 -59.328125 45.65625 -59.328125 L 45.65625 -40.921875 C 43.789062 -41.128906 42.242188 -41.234375 41.015625 -41.234375 C 36.640625 -41.234375 33.210938 -40.046875 30.734375 -37.671875 C 28.265625 -35.304688 27.03125 -31.6875 27.03125 -26.8125 L 27.03125 0 L 6.5625 0 L 6.5625 -58.359375 L 26.0625 -58.359375 Z M 26.0625 -51.359375 "/></g></g></g></svg>