<svg xmlns="http://www.w3.org/2000/svg" xmlns:xlink="http://www.w3.org/1999/xlink" width="500" zoomAndPan="magnify" viewBox="0 0 375 374.999991" height="500" preserveAspectRatio="xMidYMid meet" version="1.0"><defs><clipPath id="ea79c25632"><path d="M 66.496094 245.167969 L 203 245.167969 L 203 347.625 L 66.496094 347.625 Z M 66.496094 245.167969 " clip-rule="nonzero"/></clipPath><clipPath id="1635832547"><path d="M 124.5 246.011719 L 124.53125 245.992188 C 113.585938 250.902344 100.960938 256.488281 93.953125 259.714844 C 67.890625 271.699219 58.535156 303.042969 74.023438 326.941406 C 86.417969 346.097656 112.167969 353.375 133.636719 342.667969 C 143.644531 337.679688 167.234375 327.601562 177.359375 322.855469 C 183.84375 319.8125 190.367188 316.851562 196.890625 313.878906 C 211.707031 282.5 124.5 246.011719 124.5 246.011719 Z M 201.582031 311.746094 L 202.175781 311.476562 L 202.175781 311.460938 Z M 201.582031 311.746094 " clip-rule="nonzero"/></clipPath><clipPath id="82f71a6a40"><path d="M 124.085938 229 L 219 229 L 219 314 L 124.085938 314 Z M 124.085938 229 " clip-rule="nonzero"/></clipPath><clipPath id="69c0f4d980"><path d="M 217.269531 274.585938 C 213.578125 259.273438 195.933594 249.972656 174.140625 236.46875 C 170.726562 234.355469 166.050781 231.9375 160.675781 229.140625 L 124.5 246.007812 C 124.5 246.007812 211.730469 282.507812 196.886719 313.894531 C 211.800781 303.863281 221.574219 292.441406 217.269531 274.585938 Z M 217.269531 274.585938 " clip-rule="nonzero"/></clipPath><clipPath id="a7a1de876e"><path d="M 147.101562 71.046875 L 240 71.046875 L 240 156 L 147.101562 156 Z M 147.101562 71.046875 " clip-rule="nonzero"/></clipPath><clipPath id="05e1139083"><path d="M 166.402344 71.621094 L 166.773438 71.460938 C 125.019531 104.8125 163.878906 131.691406 163.878906 131.691406 C 163.878906 131.691406 181.882812 142.742188 203.71875 155.605469 C 206.40625 154.410156 217.515625 149.472656 239.503906 139.019531 C 151.011719 101.917969 166.878906 71.410156 166.878906 71.410156 Z M 166.402344 71.621094 " clip-rule="nonzero"/></clipPath><clipPath id="896d601e3f"><path d="M 95.066406 71.046875 L 270.183594 71.046875 L 270.183594 314 L 95.066406 314 Z M 95.066406 71.046875 " clip-rule="nonzero"/></clipPath><clipPath id="686564fac5"><path d="M 166.765625 71.460938 L 133.109375 85.894531 C 133.109375 85.894531 110.226562 95.847656 98.621094 126.066406 C 93.613281 139.113281 92.386719 168.96875 105.0625 187.285156 C 123.121094 213.355469 159.75 227.558594 174.140625 236.46875 C 195.933594 249.972656 213.578125 259.273438 217.269531 274.585938 C 221.574219 292.441406 211.800781 303.863281 196.886719 313.894531 C 217.578125 304.605469 233.902344 297.308594 233.902344 297.308594 C 233.902344 297.308594 267.132812 283.519531 270.007812 235.570312 C 271.109375 217.332031 262.3125 188.917969 239.140625 176 C 205.675781 157.339844 163.878906 131.691406 163.878906 131.691406 C 163.878906 131.691406 125.019531 104.8125 166.765625 71.460938 Z M 166.765625 71.460938 " clip-rule="nonzero"/></clipPath><clipPath id="60d89348c8"><path d="M 165.113281 27.90625 L 308.910156 27.90625 L 308.910156 153 L 165.113281 153 Z M 165.113281 27.90625 " clip-rule="nonzero"/></clipPath><clipPath id="978185bfcc"><path d="M 298.195312 49.339844 C 274.140625 43.429688 250.105469 37.433594 226.050781 31.53125 C 220.925781 30.265625 215.71875 29.210938 210.546875 28.199219 C 204.316406 26.980469 202.1875 29.589844 204.226562 35.5 C 204.691406 36.847656 205.167969 38.222656 205.761719 39.535156 C 207.433594 43.230469 209.160156 46.894531 211.027344 50.929688 C 203.710938 54.378906 176.566406 66.949219 166.765625 71.460938 C 166.765625 71.460938 151.011719 101.914062 239.503906 139.019531 L 237.667969 139.894531 C 242.089844 137.855469 246.34375 135.894531 249.96875 134.207031 C 250.542969 135.300781 250.894531 135.921875 251.203125 136.558594 C 253.027344 140.355469 254.894531 144.136719 256.71875 147.917969 C 259.773438 154.25 265.128906 154.5 268.070312 148.15625 C 268.375 147.503906 268.863281 146.945312 269.175781 146.300781 C 281.882812 120.003906 294.648438 93.730469 307.246094 67.386719 C 311.347656 58.8125 307.550781 51.636719 298.195312 49.339844 Z M 298.195312 49.339844 " clip-rule="nonzero"/></clipPath><clipPath id="98b2510c04"><path d="M 114.390625 83 L 173 83 L 173 111 L 114.390625 111 Z M 114.390625 83 " clip-rule="nonzero"/></clipPath><clipPath id="6ee175b7b3"><path d="M 160.421875 105.917969 C 164.796875 104.167969 165.847656 102.855469 166.722656 103.027344 C 167.511719 103.203125 168.824219 104.691406 168.648438 105.128906 C 168.296875 105.917969 163.746094 105.566406 161.035156 105.65625 C 157.796875 105.828125 154.121094 105.742188 150.53125 105.828125 C 146.683594 105.917969 142.394531 106.265625 138.632812 106.441406 C 135.128906 106.617188 131.628906 106.792969 128.65625 106.96875 C 126.292969 107.140625 124.105469 107.230469 122.355469 107.492188 C 121.128906 107.667969 120.164062 107.929688 119.117188 108.105469 C 118.152344 108.28125 117.015625 108.542969 116.488281 108.542969 C 116.316406 108.542969 116.226562 108.542969 116.050781 108.542969 C 115.878906 108.542969 115.789062 108.453125 115.613281 108.367188 C 115.441406 108.28125 115.265625 108.28125 115.175781 108.191406 C 115.003906 108.105469 114.914062 107.929688 114.828125 107.84375 C 114.738281 107.753906 114.652344 107.578125 114.566406 107.492188 C 114.476562 107.316406 114.476562 107.230469 114.476562 107.054688 C 114.476562 106.878906 114.390625 106.792969 114.390625 106.617188 C 114.390625 106.441406 114.390625 106.265625 114.476562 106.09375 C 114.476562 105.917969 114.566406 105.828125 114.652344 105.65625 C 114.738281 105.566406 114.828125 105.390625 114.914062 105.304688 C 115.003906 105.21875 115.175781 105.042969 115.265625 104.953125 C 115.351562 104.867188 115.527344 104.78125 115.613281 104.78125 C 115.789062 104.691406 115.878906 104.78125 116.050781 104.691406 C 116.488281 104.429688 117.101562 103.027344 117.890625 102.328125 C 118.851562 101.542969 120.253906 101.015625 121.742188 100.316406 C 123.492188 99.527344 125.589844 98.566406 127.78125 97.867188 C 130.140625 97.078125 133.207031 96.464844 135.480469 95.941406 C 137.320312 95.503906 139.070312 95.242188 140.554688 94.890625 C 141.78125 94.628906 142.746094 94.453125 143.882812 94.015625 C 145.195312 93.488281 146.59375 92.527344 147.820312 91.914062 C 148.957031 91.300781 149.921875 90.777344 151.058594 90.253906 C 152.28125 89.640625 153.683594 89.113281 154.820312 88.589844 C 155.695312 88.152344 156.308594 87.714844 157.269531 87.363281 C 158.410156 86.925781 160.421875 85.964844 161.382812 86.488281 C 162.257812 86.925781 163.046875 89.113281 162.785156 90.078125 C 162.523438 91.128906 160.683594 91.914062 159.546875 92.527344 C 158.496094 93.140625 157.183594 93.578125 156.394531 93.929688 C 155.957031 94.101562 155.609375 94.367188 155.257812 94.453125 C 154.996094 94.539062 154.820312 94.628906 154.644531 94.628906 C 154.472656 94.628906 154.207031 94.628906 154.035156 94.628906 C 153.859375 94.628906 153.597656 94.628906 153.421875 94.539062 C 153.246094 94.453125 152.984375 94.367188 152.808594 94.277344 C 152.632812 94.191406 152.457031 94.015625 152.28125 93.839844 C 152.109375 93.664062 152.019531 93.578125 151.933594 93.402344 C 151.84375 93.226562 151.757812 92.964844 151.671875 92.789062 C 151.582031 92.613281 151.582031 92.351562 151.582031 92.175781 C 151.582031 91.914062 151.582031 91.652344 151.582031 91.476562 C 151.582031 91.300781 151.671875 91.128906 151.757812 90.953125 C 151.84375 90.777344 151.933594 90.515625 152.109375 90.339844 C 152.28125 90.164062 152.457031 90.078125 152.632812 89.902344 C 152.808594 89.816406 152.894531 89.726562 153.160156 89.550781 C 153.683594 89.113281 154.558594 87.714844 155.433594 86.925781 C 156.394531 86.140625 157.707031 85.4375 158.757812 84.828125 C 159.722656 84.300781 160.507812 83.515625 161.472656 83.425781 C 162.523438 83.25 164.097656 83.601562 164.886719 84.214844 C 165.585938 84.738281 166.023438 85.527344 166.371094 86.578125 C 166.808594 87.976562 166.546875 90.691406 166.546875 92.265625 C 166.546875 93.402344 166.460938 94.277344 166.371094 95.328125 C 166.285156 96.554688 166.109375 97.867188 166.109375 99.265625 C 166.109375 100.753906 166.460938 103.117188 166.546875 104.078125 C 166.546875 104.515625 166.636719 104.691406 166.636719 105.042969 C 166.636719 105.304688 166.460938 105.65625 166.371094 105.917969 C 166.199219 106.179688 166.023438 106.441406 165.847656 106.703125 C 165.671875 106.96875 165.410156 107.140625 165.148438 107.316406 C 164.886719 107.492188 164.535156 107.578125 164.183594 107.578125 C 163.921875 107.578125 163.574219 107.578125 163.308594 107.578125 C 162.960938 107.578125 162.609375 107.492188 162.347656 107.316406 C 162.085938 107.230469 161.820312 106.96875 161.648438 106.792969 C 161.472656 106.53125 161.296875 106.265625 161.121094 106.003906 C 161.035156 105.742188 160.945312 105.390625 160.859375 105.128906 C 160.773438 104.78125 160.773438 104.515625 160.859375 104.167969 C 160.945312 103.902344 161.035156 103.554688 161.210938 103.292969 C 161.382812 103.027344 161.558594 102.765625 161.820312 102.589844 C 162.085938 102.417969 162.347656 102.242188 162.609375 102.066406 C 162.871094 101.980469 163.222656 101.804688 163.484375 101.804688 C 163.835938 101.804688 164.183594 101.804688 164.449219 101.890625 C 164.796875 101.980469 165.058594 102.152344 165.324219 102.328125 C 165.585938 102.503906 165.847656 102.679688 166.023438 102.941406 C 166.199219 103.203125 166.371094 103.554688 166.460938 103.816406 C 166.546875 104.078125 166.636719 104.429688 166.636719 104.691406 C 166.636719 105.042969 166.546875 105.390625 166.460938 105.65625 C 166.371094 105.917969 166.199219 106.179688 166.023438 106.441406 C 165.847656 106.703125 165.671875 106.96875 165.410156 107.140625 C 165.148438 107.316406 164.796875 107.40625 164.535156 107.492188 C 164.183594 107.578125 163.921875 107.667969 163.574219 107.667969 C 163.308594 107.667969 162.960938 107.578125 162.695312 107.492188 C 162.433594 107.40625 162.085938 107.140625 161.820312 106.96875 C 161.558594 106.792969 161.382812 106.53125 161.210938 106.265625 C 161.035156 106.003906 160.859375 105.390625 160.859375 105.390625 C 160.859375 105.390625 160.421875 100.753906 160.421875 98.917969 C 160.421875 97.429688 160.683594 96.203125 160.773438 95.066406 C 160.859375 94.101562 160.507812 93.226562 160.773438 92.351562 C 161.035156 91.300781 162.785156 89.464844 162.609375 89.203125 C 162.433594 89.027344 161.121094 89.988281 160.246094 90.425781 C 159.195312 90.953125 157.621094 91.390625 156.746094 92.175781 C 156.046875 92.789062 155.695312 94.101562 155.257812 94.453125 C 155.082031 94.628906 154.820312 94.628906 154.644531 94.628906 C 154.472656 94.628906 154.207031 94.628906 154.035156 94.628906 C 153.859375 94.628906 153.597656 94.628906 153.421875 94.539062 C 153.246094 94.453125 152.984375 94.367188 152.808594 94.277344 C 152.632812 94.191406 152.457031 94.015625 152.28125 93.839844 C 152.109375 93.664062 152.019531 93.578125 151.933594 93.402344 C 151.84375 93.226562 151.757812 92.964844 151.671875 92.789062 C 151.582031 92.613281 151.582031 92.351562 151.582031 92.175781 C 151.582031 91.914062 151.582031 91.652344 151.582031 91.476562 C 151.582031 91.300781 151.671875 91.128906 151.757812 90.953125 C 151.84375 90.777344 151.933594 90.515625 152.109375 90.339844 C 152.28125 90.164062 152.457031 90.078125 152.632812 89.902344 C 152.808594 89.816406 152.894531 89.640625 153.160156 89.550781 C 153.683594 89.289062 154.820312 88.851562 155.695312 88.675781 C 156.660156 88.414062 157.972656 87.800781 158.585938 88.238281 C 159.195312 88.675781 159.546875 90.601562 159.195312 91.300781 C 158.847656 92.003906 157.535156 92.089844 156.570312 92.527344 C 155.433594 93.050781 154.296875 93.488281 152.984375 94.101562 C 151.40625 94.804688 149.570312 96.117188 147.996094 96.726562 C 146.683594 97.253906 145.457031 97.429688 144.320312 97.691406 C 143.269531 97.867188 142.480469 97.867188 141.34375 98.039062 C 139.855469 98.304688 138.195312 98.828125 136.355469 99.355469 C 134.167969 99.964844 131.453125 100.402344 129.265625 101.277344 C 127.253906 102.066406 125.417969 103.117188 123.667969 104.078125 C 122.003906 104.953125 120.253906 105.917969 118.941406 106.792969 C 117.976562 107.40625 117.015625 108.367188 116.488281 108.542969 C 116.316406 108.628906 116.226562 108.542969 116.050781 108.542969 C 115.878906 108.542969 115.789062 108.453125 115.613281 108.367188 C 115.441406 108.28125 115.265625 108.28125 115.175781 108.191406 C 115.003906 108.105469 114.914062 107.929688 114.828125 107.84375 C 114.738281 107.753906 114.652344 107.578125 114.566406 107.492188 C 114.476562 107.316406 114.476562 107.230469 114.476562 107.054688 C 114.476562 106.878906 114.390625 106.792969 114.390625 106.617188 C 114.390625 106.441406 114.390625 106.265625 114.476562 106.09375 C 114.476562 105.917969 114.566406 105.828125 114.652344 105.65625 C 114.738281 105.566406 114.828125 105.390625 114.914062 105.304688 C 115.003906 105.21875 115.175781 105.042969 115.265625 104.953125 C 115.351562 104.867188 115.527344 104.78125 115.613281 104.78125 C 115.789062 104.691406 115.878906 104.691406 116.050781 104.691406 C 116.578125 104.605469 117.714844 104.78125 118.679688 104.691406 C 119.726562 104.605469 120.777344 104.515625 122.089844 104.34375 C 123.929688 104.167969 126.117188 103.816406 128.480469 103.554688 C 131.453125 103.292969 134.957031 103.027344 138.367188 102.765625 C 142.132812 102.417969 146.507812 101.980469 150.359375 101.714844 C 153.945312 101.453125 157.707031 101.277344 160.859375 101.015625 C 163.574219 100.839844 166.371094 100.230469 168.210938 100.402344 C 169.347656 100.492188 170.136719 100.667969 170.835938 101.191406 C 171.535156 101.804688 172.324219 103.027344 172.234375 103.992188 C 172.0625 105.128906 170.398438 106.53125 169.261719 107.40625 C 168.121094 108.191406 166.722656 108.628906 165.496094 109.15625 C 164.359375 109.679688 162.785156 110.292969 162.171875 110.554688 C 161.910156 110.644531 161.820312 110.730469 161.648438 110.730469 C 161.472656 110.730469 161.210938 110.730469 161.035156 110.730469 C 160.859375 110.730469 160.597656 110.644531 160.421875 110.554688 C 160.246094 110.46875 160.070312 110.378906 159.898438 110.292969 C 159.722656 110.207031 159.632812 110.03125 159.460938 109.855469 C 159.371094 109.679688 159.195312 109.59375 159.109375 109.417969 C 159.023438 109.242188 158.933594 108.980469 158.847656 108.804688 C 158.757812 108.628906 158.757812 108.367188 158.757812 108.191406 C 158.757812 108.015625 158.847656 107.84375 158.847656 107.667969 C 158.933594 107.492188 158.933594 107.230469 159.023438 107.054688 C 159.109375 106.878906 159.195312 106.703125 159.371094 106.53125 C 159.460938 106.355469 159.632812 106.265625 159.808594 106.179688 C 159.984375 106.09375 160.421875 105.917969 160.421875 105.917969 " clip-rule="nonzero"/></clipPath><clipPath id="6061d4f4d1"><path d="M 128 70 L 217 70 L 217 175 L 128 175 Z M 128 70 " clip-rule="nonzero"/></clipPath><clipPath id="fe00cd5c3b"><path d="M 149.484375 82.726562 C 156.570312 80.886719 161.121094 76.25 163.746094 77.210938 C 166.898438 78.351562 170.046875 87.363281 170.484375 91.039062 C 170.75 93.316406 170.136719 95.765625 169.171875 96.816406 C 168.5625 97.515625 167.421875 97.429688 166.546875 97.601562 C 165.671875 97.777344 164.710938 97.867188 163.746094 97.777344 C 162.871094 97.691406 161.910156 97.515625 161.035156 97.253906 C 160.160156 96.992188 159.371094 96.554688 158.585938 96.117188 C 157.796875 95.679688 157.007812 95.066406 156.394531 94.453125 C 155.785156 93.839844 155.171875 93.050781 154.734375 92.265625 C 154.296875 91.476562 153.859375 90.601562 153.597656 89.726562 C 153.332031 88.851562 153.160156 87.890625 153.070312 87.015625 C 152.984375 86.140625 153.070312 85.175781 153.246094 84.300781 C 153.421875 83.425781 153.769531 82.464844 154.121094 81.589844 C 154.472656 80.800781 154.996094 80.011719 155.519531 79.3125 C 156.132812 78.613281 156.832031 77.914062 157.535156 77.300781 C 158.234375 76.773438 158.847656 76.511719 159.898438 75.898438 C 161.820312 74.761719 165.148438 71.175781 168.386719 70.738281 C 172.0625 70.210938 178.097656 71.699219 180.8125 74.148438 C 183.351562 76.425781 184.839844 80.886719 184.839844 84.214844 C 184.839844 87.363281 182.648438 90.691406 180.898438 93.578125 C 179.0625 96.554688 176.4375 99.089844 174.074219 101.890625 C 171.625 104.78125 168.648438 108.367188 166.460938 110.730469 C 164.972656 112.394531 163.660156 113.707031 162.523438 114.84375 C 161.734375 115.632812 161.121094 116.242188 160.335938 116.769531 C 159.546875 117.292969 158.585938 117.820312 157.707031 118.167969 C 156.746094 118.519531 155.785156 118.867188 154.820312 118.957031 C 153.859375 119.042969 152.808594 119.042969 151.84375 118.957031 C 150.882812 118.867188 149.921875 118.605469 148.957031 118.257812 C 147.996094 117.90625 147.03125 117.382812 146.246094 116.855469 C 145.457031 116.332031 144.667969 115.632812 144.058594 114.929688 C 143.355469 114.230469 142.746094 113.355469 142.304688 112.480469 C 141.867188 111.605469 141.519531 110.644531 141.257812 109.679688 C 140.992188 108.71875 140.90625 107.667969 140.90625 106.703125 C 140.90625 105.742188 140.992188 104.691406 141.257812 103.730469 C 141.519531 102.765625 141.867188 101.804688 142.304688 100.929688 C 142.746094 100.054688 143.007812 99.355469 143.96875 98.476562 C 145.71875 96.816406 149.484375 94.539062 153.246094 93.050781 C 158.320312 91.039062 166.898438 89.902344 172.234375 88.675781 C 176.085938 87.800781 178.800781 87.277344 182.300781 86.3125 C 186.238281 85.265625 190.527344 83.425781 194.640625 82.550781 C 198.578125 81.675781 206.277344 81.414062 206.277344 80.976562 C 206.277344 80.714844 200.765625 80.539062 200.765625 80.277344 C 200.765625 80.101562 202.515625 79.75 203.390625 79.574219 C 204.265625 79.402344 205.316406 79.402344 206.191406 79.488281 C 207.066406 79.574219 207.941406 79.839844 208.816406 80.101562 C 209.691406 80.449219 210.566406 80.800781 211.355469 81.324219 C 212.140625 81.851562 212.84375 82.464844 213.453125 83.164062 C 214.066406 83.863281 214.59375 84.5625 215.03125 85.351562 C 215.46875 86.140625 215.816406 87.015625 216.082031 87.890625 C 216.34375 88.765625 216.429688 89.726562 216.429688 90.691406 C 216.429688 91.566406 216.34375 92.527344 216.167969 93.402344 C 215.992188 94.277344 215.644531 95.242188 215.207031 96.027344 C 214.769531 96.816406 214.328125 97.601562 213.71875 98.304688 C 213.105469 99.003906 212.492188 99.703125 211.703125 100.230469 C 211.003906 100.753906 210.390625 100.839844 209.253906 101.542969 C 206.367188 103.203125 199.191406 108.367188 194.640625 110.992188 C 190.789062 113.179688 187.550781 114.667969 183.699219 116.417969 C 179.675781 118.257812 175.210938 120.09375 171.011719 121.84375 C 166.898438 123.59375 162.785156 125.082031 158.585938 126.832031 C 154.207031 128.671875 150.09375 132.433594 145.371094 132.695312 C 140.207031 132.957031 130.492188 130.769531 128.742188 127.53125 C 127.34375 124.90625 129.792969 119.570312 131.890625 116.507812 C 133.992188 113.355469 138.367188 111.519531 141.605469 109.242188 C 144.667969 107.140625 147.121094 104.253906 150.621094 103.292969 C 154.644531 102.152344 161.472656 101.628906 164.710938 103.816406 C 167.773438 105.917969 169.785156 111.691406 169.960938 115.632812 C 170.136719 119.304688 168.824219 124.820312 166.371094 126.65625 C 164.011719 128.40625 156.222656 128.058594 155.609375 126.65625 C 154.910156 124.996094 162.085938 119.132812 166.546875 115.542969 C 172.148438 110.992188 182.039062 101.804688 187.289062 102.503906 C 191.140625 103.027344 195.078125 108.71875 196.214844 112.480469 C 197.265625 116.070312 195.515625 119.917969 194.378906 124.292969 C 192.800781 130.070312 188.953125 138.648438 186.851562 143.984375 C 185.363281 147.75 184.136719 150.109375 183 153.4375 C 181.773438 156.9375 181.949219 164.027344 179.851562 164.636719 C 177.574219 165.339844 170.136719 159.039062 169.171875 155.539062 C 168.296875 152.472656 171.1875 148.449219 172.585938 145.121094 C 173.988281 141.796875 176 137.683594 177.488281 135.496094 C 178.363281 134.269531 178.976562 133.484375 179.9375 132.785156 C 180.898438 131.996094 182.039062 131.472656 183.175781 131.035156 C 184.3125 130.597656 185.539062 130.332031 186.761719 130.332031 C 187.988281 130.332031 189.214844 130.507812 190.351562 130.859375 C 191.488281 131.207031 192.714844 131.820312 193.675781 132.519531 C 194.640625 133.222656 195.515625 134.097656 196.214844 135.058594 C 196.914062 136.023438 197.527344 137.246094 197.878906 138.382812 C 198.226562 139.523438 198.488281 140.835938 198.402344 142.058594 C 198.316406 143.285156 198.050781 144.511719 197.613281 145.648438 C 197.175781 146.785156 196.652344 147.835938 195.863281 148.796875 C 195.078125 149.761719 194.113281 150.636719 193.0625 151.25 C 192.015625 151.863281 190.875 152.386719 189.738281 152.648438 C 188.601562 152.910156 187.289062 153.085938 186.0625 153 C 184.839844 152.910156 183.613281 152.5625 182.476562 152.035156 C 181.335938 151.597656 180.289062 150.898438 179.414062 150.109375 C 178.539062 149.324219 177.75 148.273438 177.136719 147.222656 C 176.523438 146.171875 176.175781 144.949219 175.910156 143.808594 C 175.648438 142.585938 175.648438 141.359375 175.824219 140.136719 C 176 138.910156 176.347656 137.683594 176.875 136.632812 C 177.398438 135.585938 178.1875 134.535156 179.0625 133.660156 C 179.9375 132.785156 180.988281 131.996094 182.039062 131.472656 C 183.085938 130.945312 184.3125 130.597656 185.539062 130.421875 C 186.761719 130.246094 187.988281 130.246094 189.214844 130.507812 C 190.351562 130.769531 191.578125 131.207031 192.625 131.820312 C 193.675781 132.433594 194.726562 133.222656 195.515625 134.097656 C 196.300781 134.972656 197.003906 136.109375 197.441406 137.246094 C 197.878906 138.382812 198.226562 139.609375 198.316406 140.835938 C 198.402344 142.058594 198.316406 143.285156 198.050781 144.421875 C 197.789062 145.5625 196.566406 147.835938 196.566406 147.835938 C 196.566406 147.835938 193.414062 154.398438 191.050781 157.898438 C 188.25 162.1875 184.402344 168.488281 180.375 171.203125 C 177.050781 173.390625 172.761719 175.402344 169.4375 174.265625 C 165.234375 172.863281 159.371094 164.726562 158.410156 159.648438 C 157.535156 155.1875 161.035156 149.9375 162.347656 145.734375 C 163.484375 142.148438 164.621094 139.085938 165.761719 135.847656 C 166.808594 132.695312 167.859375 129.71875 168.910156 126.484375 C 170.046875 122.980469 170.574219 115.894531 172.5 115.457031 C 174.511719 115.019531 177.3125 122.894531 180.726562 123.683594 C 184.488281 124.558594 193.5 117.992188 194.289062 119.132812 C 194.988281 120.09375 190.527344 125.171875 188.164062 127.796875 C 185.800781 130.421875 183.175781 132.257812 179.9375 134.707031 C 175.824219 137.859375 169.785156 142.410156 165.148438 144.949219 C 161.558594 146.875 158.234375 149.761719 154.910156 149.148438 C 150.882812 148.359375 144.757812 141.972656 143.09375 137.773438 C 141.695312 134.269531 142.746094 130.070312 143.707031 126.394531 C 144.667969 122.542969 146.59375 115.980469 149.132812 115.367188 C 151.757812 114.757812 159.898438 122.28125 159.460938 123.332031 C 159.023438 124.382812 151.496094 123.507812 147.90625 122.105469 C 144.144531 120.621094 137.320312 116.59375 137.582031 114.40625 C 137.84375 112.128906 146.507812 110.90625 150.707031 108.980469 C 154.734375 107.140625 158.496094 105.304688 162.257812 103.378906 C 166.023438 101.453125 169.347656 99.792969 173.460938 97.515625 C 178.710938 94.539062 186.238281 90.164062 191.226562 86.925781 C 194.988281 84.5625 198.488281 81.324219 200.765625 80.277344 C 201.816406 79.75 202.515625 79.75 203.390625 79.574219 C 204.265625 79.402344 205.316406 79.402344 206.191406 79.488281 C 207.066406 79.574219 207.941406 79.839844 208.816406 80.101562 C 209.691406 80.449219 210.566406 80.800781 211.355469 81.324219 C 212.140625 81.851562 212.84375 82.464844 213.453125 83.164062 C 214.066406 83.863281 214.59375 84.5625 215.03125 85.351562 C 215.46875 86.140625 215.816406 87.015625 216.082031 87.890625 C 216.34375 88.765625 216.429688 89.726562 216.429688 90.691406 C 216.429688 91.566406 216.34375 92.527344 216.167969 93.402344 C 215.992188 94.277344 215.644531 95.242188 215.207031 96.027344 C 214.769531 96.816406 214.328125 97.601562 213.71875 98.304688 C 213.105469 99.003906 212.40625 99.617188 211.703125 100.140625 C 210.917969 100.667969 210.304688 101.105469 209.253906 101.542969 C 207.503906 102.328125 204.878906 102.941406 202.078125 103.816406 C 198.226562 105.042969 192.539062 106.878906 188.25 108.191406 C 184.574219 109.332031 181.6875 110.378906 177.835938 111.429688 C 173.285156 112.65625 165.234375 113.441406 162.523438 114.84375 C 161.382812 115.457031 161.121094 116.242188 160.335938 116.769531 C 159.546875 117.292969 158.585938 117.820312 157.707031 118.167969 C 156.746094 118.519531 155.785156 118.867188 154.820312 118.957031 C 153.859375 119.042969 152.808594 119.042969 151.84375 118.957031 C 150.882812 118.867188 149.921875 118.605469 148.957031 118.257812 C 147.996094 117.90625 147.03125 117.382812 146.246094 116.855469 C 145.457031 116.332031 144.667969 115.632812 144.058594 114.929688 C 143.355469 114.230469 142.746094 113.355469 142.304688 112.480469 C 141.867188 111.605469 141.519531 110.644531 141.257812 109.679688 C 140.992188 108.71875 140.90625 107.667969 140.90625 106.703125 C 140.90625 105.742188 140.992188 104.691406 141.257812 103.730469 C 141.519531 102.765625 141.867188 101.804688 142.304688 100.929688 C 142.746094 100.054688 143.269531 99.355469 143.96875 98.476562 C 145.019531 97.253906 146.507812 96.117188 147.996094 94.539062 C 150.007812 92.441406 152.632812 89.464844 154.910156 86.925781 C 157.183594 84.390625 159.898438 78.964844 161.648438 79.3125 C 163.398438 79.664062 162.960938 87.101562 165.410156 89.289062 C 168.121094 91.652344 178.011719 90.691406 178.1875 92.089844 C 178.363281 93.316406 171.273438 95.941406 169.171875 96.816406 C 168.035156 97.253906 167.421875 97.429688 166.546875 97.601562 C 165.671875 97.777344 164.710938 97.867188 163.746094 97.777344 C 162.871094 97.691406 161.910156 97.515625 161.035156 97.253906 C 160.160156 96.992188 159.371094 96.554688 158.585938 96.117188 C 157.796875 95.679688 157.007812 95.066406 156.394531 94.453125 C 155.785156 93.839844 155.171875 93.050781 154.734375 92.265625 C 154.296875 91.476562 153.859375 90.601562 153.597656 89.726562 C 153.332031 88.851562 153.160156 87.890625 153.070312 87.015625 C 152.984375 86.140625 153.070312 85.175781 153.246094 84.300781 C 153.421875 83.425781 153.769531 82.464844 154.121094 81.589844 C 154.472656 80.800781 154.996094 80.011719 155.519531 79.3125 C 156.132812 78.613281 156.832031 77.914062 157.535156 77.300781 C 158.234375 76.773438 159.632812 76.25 159.898438 75.898438 C 159.984375 75.8125 159.898438 75.726562 159.984375 75.636719 C 160.507812 75.023438 165.585938 71.261719 168.734375 71.261719 C 172.410156 71.261719 178.976562 74.148438 180.636719 77.386719 C 182.300781 80.625 180.550781 87.101562 178.449219 90.601562 C 176.347656 93.929688 171.796875 96.203125 168.210938 98.039062 C 164.796875 99.792969 160.421875 100.753906 157.621094 101.453125 C 155.871094 101.890625 154.472656 101.980469 153.160156 102.152344 C 152.195312 102.242188 151.496094 102.417969 150.707031 102.328125 C 149.921875 102.242188 149.132812 102.152344 148.433594 101.890625 C 147.644531 101.628906 146.945312 101.367188 146.246094 100.929688 C 145.542969 100.578125 144.84375 100.054688 144.320312 99.527344 C 143.707031 99.003906 143.269531 98.304688 142.832031 97.601562 C 142.394531 96.902344 142.132812 96.203125 141.867188 95.414062 C 141.605469 94.714844 141.519531 93.929688 141.429688 93.140625 C 141.34375 92.351562 141.34375 91.476562 141.519531 90.691406 C 141.695312 89.902344 141.867188 89.113281 142.21875 88.414062 C 142.570312 87.714844 142.917969 87.015625 143.445312 86.402344 C 143.882812 85.789062 144.496094 85.265625 145.105469 84.738281 C 145.71875 84.214844 146.507812 83.777344 147.207031 83.425781 C 147.90625 83.074219 149.484375 82.726562 149.484375 82.726562 " clip-rule="nonzero"/></clipPath><clipPath id="1421818e57"><path d="M 179 102 L 246 102 L 246 140.835938 L 179 140.835938 Z M 179 102 " clip-rule="nonzero"/></clipPath><clipPath id="41665f6458"><path d="M 228.945312 121.058594 C 230.78125 121.40625 229.820312 128.40625 227.894531 130.859375 C 225.96875 133.394531 221.945312 135.058594 218.355469 135.757812 C 214.328125 136.460938 209.078125 134.707031 204.878906 134.269531 C 201.203125 133.832031 197.175781 133.222656 194.550781 133.046875 C 192.976562 132.957031 191.839844 132.957031 190.703125 132.871094 C 189.738281 132.785156 188.863281 132.695312 187.988281 132.433594 C 187.113281 132.171875 186.238281 131.820312 185.449219 131.382812 C 184.664062 130.945312 183.875 130.332031 183.261719 129.71875 C 182.5625 129.109375 182.039062 128.320312 181.511719 127.53125 C 181.074219 126.746094 180.636719 125.957031 180.375 125.082031 C 180.113281 124.207031 179.851562 123.246094 179.761719 122.371094 C 179.675781 121.496094 179.761719 120.53125 179.9375 119.65625 C 180.113281 118.78125 180.375 117.90625 180.726562 117.03125 C 181.074219 116.242188 181.511719 115.367188 182.039062 114.667969 C 182.5625 113.96875 183.261719 113.269531 183.964844 112.65625 C 184.664062 112.042969 185.539062 111.605469 186.324219 111.167969 C 187.113281 110.816406 187.988281 110.46875 188.863281 110.292969 C 189.738281 110.117188 190.4375 110.03125 191.664062 110.117188 C 194.289062 110.292969 203.214844 110.816406 203.742188 112.480469 C 204.179688 113.96875 196.128906 117.90625 196.566406 119.21875 C 197.089844 120.621094 205.839844 121.84375 208.203125 120.183594 C 210.390625 118.695312 210.566406 110.730469 211.09375 110.730469 C 211.355469 110.730469 211.53125 112.65625 211.617188 113.617188 C 211.703125 114.582031 211.617188 115.542969 211.441406 116.507812 C 211.265625 117.46875 211.003906 118.429688 210.566406 119.304688 C 210.21875 120.183594 209.691406 120.96875 209.078125 121.757812 C 208.464844 122.542969 207.855469 123.246094 207.066406 123.855469 C 206.277344 124.46875 205.402344 124.90625 204.527344 125.34375 C 203.652344 125.695312 202.691406 126.046875 201.726562 126.21875 C 200.765625 126.394531 199.804688 126.484375 198.839844 126.394531 C 197.878906 126.308594 196.914062 126.132812 196.039062 125.871094 C 195.078125 125.609375 194.203125 125.257812 193.328125 124.734375 C 192.539062 124.207031 191.75 123.59375 191.050781 122.894531 C 190.351562 122.195312 189.738281 121.40625 189.214844 120.621094 C 188.6875 119.832031 188.339844 118.78125 188.074219 117.992188 C 187.8125 117.292969 187.636719 116.769531 187.550781 115.980469 C 187.464844 114.929688 187.464844 113.355469 187.726562 112.042969 C 187.988281 110.816406 188.425781 109.503906 189.039062 108.367188 C 189.652344 107.230469 190.613281 106.179688 191.578125 105.304688 C 192.539062 104.429688 193.675781 103.816406 194.816406 103.292969 C 196.039062 102.765625 197.351562 102.417969 198.664062 102.328125 C 199.976562 102.242188 201.289062 102.328125 202.515625 102.679688 C 203.742188 103.027344 205.054688 103.554688 206.105469 104.253906 C 207.152344 104.953125 208.203125 105.917969 208.992188 106.878906 C 209.78125 107.929688 210.480469 109.066406 210.917969 110.292969 C 211.355469 111.519531 211.617188 112.742188 211.617188 114.054688 C 211.617188 115.367188 211.441406 116.769531 211.09375 117.992188 C 210.742188 119.21875 210.128906 120.355469 209.34375 121.40625 C 208.554688 122.457031 207.589844 123.417969 206.542969 124.207031 C 205.492188 124.996094 204.265625 125.609375 203.039062 125.957031 C 201.816406 126.308594 200.503906 126.394531 199.191406 126.394531 C 197.878906 126.394531 196.566406 126.132812 195.339844 125.695312 C 194.113281 125.257812 192.890625 124.558594 191.925781 123.769531 C 190.964844 122.980469 190.089844 121.84375 189.390625 120.792969 C 188.6875 119.65625 188.074219 118.429688 187.8125 117.207031 C 187.550781 115.980469 187.464844 114.667969 187.550781 113.355469 C 187.636719 112.042969 187.988281 110.730469 188.511719 109.503906 C 189.039062 108.367188 189.738281 107.230469 190.613281 106.265625 C 191.488281 105.304688 192.539062 104.429688 193.675781 103.816406 C 194.816406 103.203125 196.128906 102.765625 197.351562 102.503906 C 198.578125 102.242188 199.976562 102.242188 201.203125 102.417969 C 202.515625 102.589844 203.828125 102.941406 204.964844 103.554688 C 206.105469 104.078125 207.242188 104.953125 208.117188 105.828125 C 208.992188 106.792969 209.867188 108.105469 210.390625 109.066406 C 210.742188 109.679688 210.917969 110.117188 211.09375 110.730469 C 211.355469 111.519531 211.53125 112.65625 211.617188 113.617188 C 211.703125 114.582031 211.617188 115.542969 211.441406 116.507812 C 211.265625 117.46875 211.003906 118.429688 210.566406 119.304688 C 210.21875 120.183594 209.691406 120.96875 209.078125 121.757812 C 208.464844 122.542969 207.855469 123.246094 207.066406 123.855469 C 206.277344 124.46875 205.402344 124.90625 204.527344 125.34375 C 203.652344 125.695312 202.691406 126.046875 201.726562 126.21875 C 200.765625 126.394531 199.804688 126.484375 198.839844 126.394531 C 197.878906 126.308594 196.914062 126.132812 196.039062 125.871094 C 195.078125 125.609375 194.203125 125.257812 193.328125 124.734375 C 192.539062 124.207031 191.75 123.59375 191.050781 122.894531 C 190.351562 122.195312 189.738281 121.40625 189.214844 120.621094 C 188.6875 119.832031 188.425781 118.957031 188.074219 117.992188 C 187.636719 116.855469 186.5 115.632812 186.851562 114.144531 C 187.464844 111.429688 192.453125 105.128906 196.214844 103.992188 C 199.976562 102.855469 205.929688 104.78125 209.34375 107.054688 C 212.578125 109.242188 215.378906 113.269531 216.519531 116.945312 C 217.65625 120.53125 218.355469 125.78125 216.429688 128.84375 C 214.328125 132.347656 207.417969 135.320312 202.953125 135.847656 C 198.839844 136.371094 193.328125 133.394531 190.703125 132.871094 C 189.476562 132.609375 188.863281 132.695312 187.988281 132.433594 C 187.113281 132.171875 186.238281 131.820312 185.449219 131.382812 C 184.664062 130.945312 183.875 130.332031 183.261719 129.71875 C 182.5625 129.109375 182.039062 128.320312 181.511719 127.53125 C 181.074219 126.746094 180.636719 125.957031 180.375 125.082031 C 180.113281 124.207031 179.851562 123.246094 179.761719 122.371094 C 179.675781 121.496094 179.761719 120.53125 179.9375 119.65625 C 180.113281 118.78125 180.375 117.90625 180.726562 117.03125 C 181.074219 116.242188 181.511719 115.367188 182.039062 114.667969 C 182.5625 113.96875 183.261719 113.269531 183.964844 112.65625 C 184.664062 112.042969 185.539062 111.605469 186.324219 111.167969 C 187.113281 110.816406 187.988281 110.46875 188.863281 110.292969 C 189.738281 110.117188 191.402344 110.117188 191.664062 110.117188 C 191.75 110.117188 191.664062 110.117188 191.75 110.117188 C 192.363281 110.117188 198.226562 110.90625 201.992188 111.429688 C 206.542969 112.042969 212.40625 112.742188 217.042969 113.53125 C 220.980469 114.144531 224.304688 114.929688 227.894531 115.632812 C 231.308594 116.332031 235.070312 115.980469 237.957031 117.554688 C 240.933594 119.21875 244.695312 122.71875 245.398438 125.78125 C 246.097656 128.582031 244.695312 132.695312 242.859375 135.058594 C 240.933594 137.507812 235.683594 139.433594 234.019531 139.960938 C 233.40625 140.136719 233.234375 140.046875 232.796875 140.136719 C 232.09375 140.222656 231.21875 140.398438 230.433594 140.308594 C 229.644531 140.222656 228.855469 140.046875 228.15625 139.871094 C 227.371094 139.609375 226.667969 139.347656 225.96875 138.996094 C 225.269531 138.648438 224.65625 138.121094 224.132812 137.597656 C 223.605469 137.070312 223.082031 136.460938 222.644531 135.757812 C 222.207031 135.148438 221.945312 134.359375 221.679688 133.660156 C 221.417969 132.957031 221.242188 132.171875 221.15625 131.382812 C 221.070312 130.597656 221.15625 129.808594 221.242188 129.019531 C 221.332031 128.234375 221.59375 127.445312 221.945312 126.746094 C 222.207031 126.046875 222.644531 125.34375 223.082031 124.734375 C 223.519531 124.121094 224.132812 123.507812 224.746094 123.070312 C 225.355469 122.542969 226.058594 122.195312 226.757812 121.84375 C 227.457031 121.496094 228.945312 121.058594 228.945312 121.058594 " clip-rule="nonzero"/></clipPath><clipPath id="b92c2e904f"><path d="M 180.550781 140 L 204 140 L 204 163.324219 L 180.550781 163.324219 Z M 180.550781 140 " clip-rule="nonzero"/></clipPath><clipPath id="94e346ade4"><path d="M 196.128906 142.496094 C 197.175781 144.074219 187.027344 146.699219 186.851562 146.347656 C 186.761719 146.171875 188.511719 145.035156 189.476562 144.597656 C 190.4375 144.160156 191.488281 143.722656 192.539062 143.636719 C 193.589844 143.546875 194.640625 143.636719 195.691406 143.808594 C 196.738281 143.984375 197.789062 144.421875 198.664062 144.949219 C 199.539062 145.472656 200.414062 146.171875 201.117188 146.960938 C 201.816406 147.75 202.429688 148.710938 202.867188 149.671875 C 203.304688 150.636719 203.476562 151.6875 203.566406 152.738281 C 203.652344 153.785156 203.566406 154.835938 203.304688 155.886719 C 203.039062 156.9375 202.601562 157.988281 201.992188 158.863281 C 201.378906 159.738281 200.589844 160.523438 199.804688 161.136719 C 198.929688 161.75 197.964844 162.363281 197.003906 162.714844 C 196.039062 163.0625 194.988281 163.238281 193.941406 163.238281 C 192.890625 163.238281 191.75 163.152344 190.789062 162.800781 C 189.738281 162.449219 188.777344 161.925781 187.902344 161.3125 C 187.027344 160.699219 186.324219 159.914062 185.714844 159.039062 C 185.101562 158.164062 184.664062 157.199219 184.3125 156.238281 C 183.964844 155.273438 183.875 154.136719 183.875 153.085938 C 183.875 152.035156 184.226562 150.898438 184.574219 149.9375 C 184.925781 148.972656 185.449219 147.921875 186.152344 147.136719 C 186.761719 146.347656 187.636719 145.5625 188.511719 145.035156 C 189.390625 144.511719 190.4375 144.074219 191.488281 143.808594 C 192.539062 143.546875 193.589844 143.546875 194.640625 143.636719 C 195.691406 143.722656 196.738281 143.984375 197.703125 144.421875 C 198.664062 144.859375 199.628906 145.472656 200.414062 146.171875 C 201.203125 146.875 201.816406 147.75 202.339844 148.710938 C 202.867188 149.585938 203.214844 150.636719 203.390625 151.6875 C 203.566406 152.738281 203.652344 153.785156 203.476562 154.835938 C 203.304688 155.886719 203.039062 156.9375 202.515625 157.898438 C 202.078125 158.863281 200.589844 160.4375 200.589844 160.4375 C 200.589844 160.4375 187.550781 159.914062 185.449219 158.949219 C 184.839844 158.6875 184.839844 158.335938 184.402344 157.988281 C 183.875 157.550781 183.175781 157.023438 182.648438 156.414062 C 182.125 155.800781 181.773438 155.097656 181.425781 154.398438 C 181.074219 153.699219 180.898438 153 180.726562 152.210938 C 180.550781 151.425781 180.550781 150.636719 180.550781 149.847656 C 180.550781 149.0625 180.726562 148.273438 180.898438 147.484375 C 181.074219 146.785156 181.425781 146.085938 181.773438 145.386719 C 182.210938 144.683594 182.738281 143.984375 183.261719 143.460938 C 183.789062 142.933594 184.402344 142.496094 185.011719 142.058594 C 185.714844 141.621094 186.414062 141.273438 187.199219 141.011719 C 187.902344 140.746094 188.6875 140.660156 189.476562 140.574219 C 190.265625 140.484375 191.050781 140.484375 191.839844 140.660156 C 192.625 140.835938 193.328125 141.097656 194.027344 141.359375 C 194.726562 141.710938 196.128906 142.496094 196.128906 142.496094 " clip-rule="nonzero"/></clipPath><clipPath id="83e0357b97"><path d="M 127 252 L 147.820312 252 L 147.820312 272.980469 L 127 272.980469 Z M 127 252 " clip-rule="nonzero"/></clipPath><clipPath id="403924d0c8"><path d="M 128.390625 266.328125 C 127.605469 262.214844 127.691406 261.164062 127.953125 260.203125 C 128.21875 259.242188 128.65625 258.191406 129.179688 257.316406 C 129.703125 256.441406 130.492188 255.566406 131.28125 254.953125 C 132.066406 254.339844 133.03125 253.816406 133.992188 253.464844 C 134.957031 253.113281 136.003906 252.851562 137.054688 252.851562 C 138.105469 252.851562 139.242188 252.9375 140.207031 253.289062 C 141.167969 253.640625 142.132812 254.078125 143.007812 254.691406 C 143.792969 255.300781 144.582031 256.089844 145.195312 256.878906 C 145.808594 257.753906 146.332031 258.714844 146.59375 259.679688 C 146.855469 260.640625 146.945312 261.777344 146.945312 262.828125 C 146.945312 263.878906 146.769531 264.929688 146.417969 265.890625 C 146.070312 266.855469 145.457031 267.816406 144.84375 268.605469 C 144.144531 269.390625 143.355469 270.179688 142.480469 270.703125 C 141.605469 271.230469 140.554688 271.667969 139.59375 271.929688 C 138.632812 272.191406 137.582031 272.28125 136.53125 272.191406 C 135.480469 272.105469 134.429688 271.84375 133.46875 271.40625 C 132.503906 270.96875 131.628906 270.441406 130.84375 269.742188 C 130.054688 269.042969 129.441406 268.167969 128.917969 267.292969 C 128.390625 266.417969 127.953125 265.367188 127.78125 264.316406 C 127.605469 263.265625 127.515625 262.214844 127.691406 261.164062 C 127.867188 260.117188 128.21875 259.066406 128.65625 258.191406 C 129.09375 257.226562 129.792969 256.351562 130.492188 255.652344 C 131.191406 254.953125 132.066406 254.253906 133.03125 253.816406 C 133.90625 253.378906 134.957031 253.113281 136.003906 252.9375 C 137.054688 252.765625 138.105469 252.851562 139.15625 253.027344 C 140.117188 253.203125 141.167969 253.550781 142.042969 254.078125 C 142.917969 254.601562 143.792969 255.300781 144.496094 256.089844 C 145.195312 256.878906 146.246094 258.714844 146.246094 258.714844 C 146.246094 258.714844 146.769531 260.117188 146.945312 260.902344 C 147.121094 261.691406 147.207031 262.476562 147.207031 263.265625 C 147.207031 264.054688 147.03125 264.839844 146.855469 265.542969 C 146.59375 266.328125 146.246094 267.027344 145.894531 267.730469 C 145.542969 268.429688 145.105469 269.042969 144.582031 269.566406 C 144.058594 270.09375 143.445312 270.617188 142.746094 271.054688 C 142.132812 271.492188 141.34375 271.84375 140.644531 272.105469 C 139.945312 272.367188 139.15625 272.453125 138.367188 272.542969 C 137.582031 272.628906 136.792969 272.628906 136.003906 272.542969 C 135.21875 272.453125 134.519531 272.105469 133.816406 271.84375 C 133.117188 271.492188 132.332031 271.140625 131.71875 270.703125 C 131.105469 270.265625 130.578125 269.742188 130.054688 269.128906 C 129.53125 268.515625 128.742188 267.203125 128.742188 267.203125 " clip-rule="nonzero"/></clipPath><clipPath id="c7f29d8dd0"><path d="M 118.941406 218.808594 L 223.957031 218.808594 L 223.957031 294.945312 L 118.941406 294.945312 Z M 118.941406 218.808594 " clip-rule="nonzero"/></clipPath><clipPath id="2d514c2ac9"><path d="M 129.441406 264.929688 C 127.515625 264.402344 126.640625 264.230469 125.855469 263.964844 C 125.066406 263.703125 124.367188 263.441406 123.667969 263.003906 C 122.964844 262.566406 122.355469 262.039062 121.828125 261.515625 C 121.304688 260.902344 120.777344 260.289062 120.339844 259.589844 C 119.902344 258.890625 119.640625 258.191406 119.378906 257.402344 C 119.117188 256.613281 118.941406 255.828125 118.941406 255.039062 C 118.941406 254.253906 118.941406 253.464844 119.117188 252.675781 C 119.289062 251.890625 119.464844 251.101562 119.816406 250.402344 C 120.164062 249.703125 120.601562 248.914062 121.128906 248.300781 C 121.652344 247.6875 122.179688 247.074219 122.792969 246.636719 C 123.402344 246.113281 124.191406 245.761719 124.890625 245.414062 C 125.589844 245.0625 126.378906 244.800781 127.167969 244.714844 C 127.953125 244.625 128.742188 244.539062 129.53125 244.625 C 130.316406 244.714844 131.453125 244.363281 131.890625 245.0625 C 133.03125 246.988281 127.867188 263.089844 125.855469 263.964844 C 125.152344 264.316406 124.453125 263.441406 123.753906 263.003906 C 123.054688 262.566406 122.441406 262.039062 121.828125 261.515625 C 121.304688 260.902344 120.777344 260.289062 120.339844 259.589844 C 119.902344 258.890625 119.640625 258.191406 119.378906 257.402344 C 119.117188 256.613281 118.941406 255.828125 118.941406 255.039062 C 118.941406 254.253906 118.941406 253.464844 119.117188 252.675781 C 119.289062 251.890625 119.554688 251.101562 119.902344 250.402344 C 120.253906 249.703125 120.601562 248.914062 121.128906 248.300781 C 121.566406 247.6875 122.179688 247.074219 122.792969 246.636719 C 123.402344 246.113281 124.191406 245.761719 124.890625 245.414062 C 125.589844 245.0625 126.378906 244.800781 127.167969 244.714844 C 127.953125 244.625 128.742188 244.539062 129.53125 244.625 C 130.316406 244.714844 131.015625 244.539062 131.890625 245.0625 C 133.644531 246.113281 135.566406 251.976562 138.367188 252.414062 C 141.957031 252.9375 146.945312 246.375 152.109375 244.277344 C 157.972656 241.914062 166.023438 241.039062 171.886719 239.636719 C 176.699219 238.5 182.039062 237.1875 184.925781 236.398438 C 186.414062 236.050781 187.199219 235.699219 188.25 235.523438 C 189.125 235.347656 189.914062 235.261719 190.789062 235.261719 C 191.578125 235.261719 192.453125 235.4375 193.238281 235.613281 C 194.027344 235.785156 194.902344 236.136719 195.601562 236.488281 C 196.390625 236.925781 197.089844 237.363281 197.703125 237.976562 C 198.316406 238.5 198.925781 239.199219 199.367188 239.898438 C 199.804688 240.601562 200.242188 241.386719 200.503906 242.175781 C 200.765625 242.964844 201.027344 243.839844 201.117188 244.625 C 201.203125 245.5 201.117188 246.289062 201.027344 247.164062 C 200.941406 247.953125 200.679688 248.828125 200.414062 249.613281 C 200.066406 250.402344 199.714844 251.1875 199.191406 251.890625 C 198.753906 252.589844 198.140625 253.203125 197.527344 253.726562 C 196.914062 254.253906 196.214844 254.777344 195.425781 255.128906 C 194.640625 255.476562 193.152344 256.265625 192.976562 256.003906 C 192.625 255.476562 200.503906 247.25 200.941406 247.601562 C 201.378906 247.953125 197.089844 256.003906 194.640625 259.242188 C 192.453125 262.128906 187.199219 266.417969 187.199219 266.417969 C 187.199219 266.417969 185.625 267.203125 184.75 267.464844 C 183.875 267.730469 183 267.902344 182.125 267.902344 C 181.25 267.902344 180.375 267.816406 179.5 267.640625 C 178.625 267.464844 177.75 267.203125 176.960938 266.855469 C 176.175781 266.503906 175.472656 265.980469 174.773438 265.453125 C 174.074219 264.929688 173.375 264.230469 172.847656 263.527344 C 172.324219 262.828125 171.886719 262.039062 171.535156 261.253906 C 171.1875 260.464844 171.011719 259.589844 170.835938 258.714844 C 170.660156 257.839844 170.574219 256.878906 170.660156 256.003906 C 170.75 255.128906 170.921875 254.253906 171.1875 253.378906 C 171.449219 252.589844 171.886719 251.714844 172.324219 251.015625 C 172.761719 250.226562 173.375 249.527344 173.988281 248.914062 C 174.597656 248.300781 175.210938 248.214844 176.175781 247.339844 C 178.800781 244.976562 185.011719 236.925781 189.125 232.722656 C 192.453125 229.3125 196.828125 225.722656 198.753906 223.796875 C 199.628906 222.921875 199.890625 222.484375 200.589844 221.871094 C 201.203125 221.257812 201.902344 220.734375 202.691406 220.296875 C 203.476562 219.859375 204.265625 219.507812 205.140625 219.246094 C 206.015625 218.984375 206.890625 218.808594 207.765625 218.808594 C 208.640625 218.808594 209.515625 218.808594 210.390625 218.984375 C 211.265625 219.160156 212.054688 219.507812 212.84375 219.859375 C 213.628906 220.210938 214.417969 220.734375 215.117188 221.257812 C 215.816406 221.785156 216.429688 222.484375 216.957031 223.183594 C 217.480469 223.886719 217.917969 224.671875 218.269531 225.460938 C 218.617188 226.246094 218.792969 227.121094 218.96875 228 C 219.144531 228.875 219.230469 229.75 219.144531 230.625 C 219.054688 231.5 218.878906 232.375 218.617188 233.25 C 218.355469 234.035156 217.917969 234.910156 217.480469 235.613281 C 217.042969 236.3125 216.691406 236.835938 215.816406 237.625 C 214.15625 239.113281 210.480469 241.824219 207.503906 243.136719 C 204.527344 244.449219 201.027344 244.363281 197.789062 245.324219 C 194.464844 246.289062 191.226562 248.476562 187.8125 248.914062 C 184.402344 249.351562 180.550781 248.652344 177.222656 247.863281 C 173.988281 247.074219 168.648438 245.0625 168.121094 244.277344 C 168.035156 244.101562 168.210938 244.011719 168.121094 243.839844 C 167.859375 243.402344 166.285156 243.050781 165.496094 242.523438 C 164.710938 242 163.921875 241.386719 163.222656 240.6875 C 162.523438 239.988281 161.996094 239.199219 161.472656 238.324219 C 160.945312 237.449219 160.507812 236.574219 160.246094 235.613281 C 159.984375 234.648438 159.808594 233.597656 159.808594 232.636719 C 159.808594 231.671875 159.898438 230.710938 160.070312 229.75 C 160.246094 228.785156 160.597656 227.824219 161.035156 226.949219 C 161.472656 226.074219 161.996094 225.199219 162.609375 224.410156 C 163.222656 223.621094 163.921875 223.011719 164.710938 222.398438 C 165.496094 221.785156 166.371094 221.257812 167.246094 220.910156 C 168.121094 220.558594 169.171875 220.296875 170.136719 220.121094 C 171.097656 219.945312 172.148438 219.859375 173.109375 219.945312 C 174.074219 220.035156 175.5625 219.683594 176 220.558594 C 177.398438 223.011719 170.660156 242.699219 168.121094 243.839844 C 167.246094 244.1875 166.285156 243.136719 165.496094 242.613281 C 164.710938 242.085938 163.921875 241.386719 163.222656 240.6875 C 162.523438 239.988281 161.910156 239.199219 161.382812 238.324219 C 160.859375 237.449219 160.507812 236.574219 160.246094 235.613281 C 159.984375 234.648438 159.808594 233.6875 159.808594 232.722656 C 159.808594 231.761719 159.898438 230.710938 160.070312 229.75 C 160.246094 228.785156 160.597656 227.824219 161.035156 226.949219 C 161.472656 226.074219 161.996094 225.199219 162.609375 224.410156 C 163.222656 223.621094 163.921875 223.011719 164.710938 222.398438 C 165.496094 221.785156 166.371094 221.257812 167.246094 220.910156 C 168.121094 220.558594 169.171875 220.296875 170.136719 220.121094 C 171.097656 219.945312 172.148438 219.859375 173.109375 219.945312 C 174.074219 220.035156 174.863281 219.945312 176 220.558594 C 178.097656 221.609375 180.898438 226.074219 183.875 227.824219 C 186.761719 229.484375 190.351562 230.011719 193.675781 230.886719 C 196.914062 231.761719 200.414062 231.9375 203.476562 233.160156 C 206.542969 234.386719 209.867188 235.875 212.140625 238.238281 C 214.503906 240.6875 215.554688 244.714844 217.304688 247.777344 C 218.878906 250.664062 221.242188 252.9375 222.117188 256.175781 C 223.167969 259.851562 223.605469 265.015625 222.382812 268.691406 C 221.15625 272.28125 217.65625 275.34375 215.03125 278.144531 C 212.667969 280.679688 210.304688 282.78125 207.679688 284.707031 C 205.054688 286.632812 202.339844 288.292969 199.367188 289.78125 C 196.214844 291.359375 192.714844 293.457031 189.300781 293.894531 C 185.886719 294.332031 182.210938 293.808594 178.886719 292.582031 C 175.386719 291.269531 171.972656 288.121094 169 285.84375 C 166.285156 283.742188 163.398438 281.207031 161.734375 279.457031 C 160.683594 278.40625 160.421875 277.269531 159.460938 276.742188 C 158.585938 276.21875 157.359375 276.480469 156.308594 276.21875 C 155.257812 275.957031 154.296875 275.519531 153.332031 274.992188 C 152.457031 274.46875 151.582031 273.769531 150.796875 273.066406 C 150.007812 272.367188 149.308594 271.492188 148.695312 270.617188 C 148.082031 269.742188 147.644531 268.78125 147.292969 267.730469 C 146.945312 266.765625 146.769531 265.628906 146.683594 264.578125 C 146.59375 263.527344 146.59375 262.390625 146.769531 261.339844 C 146.945312 260.289062 147.207031 259.242188 147.644531 258.277344 C 148.082031 257.316406 148.609375 256.351562 149.21875 255.476562 C 149.832031 254.601562 150.707031 253.902344 151.496094 253.203125 C 152.371094 252.5 153.246094 251.890625 154.207031 251.453125 C 155.171875 251.015625 156.132812 250.664062 157.183594 250.402344 C 158.234375 250.140625 160.421875 250.140625 160.421875 250.140625 C 160.421875 250.140625 157.882812 250.3125 157.882812 250.3125 C 157.882812 250.3125 160.773438 250.050781 162.171875 250.3125 C 163.574219 250.578125 165.058594 251.015625 166.285156 251.714844 C 167.511719 252.414062 168.734375 253.289062 169.699219 254.339844 C 170.660156 255.390625 171.449219 256.613281 172.0625 257.925781 C 172.671875 259.242188 173.023438 260.640625 173.199219 262.039062 C 173.375 263.441406 173.199219 264.929688 172.9375 266.328125 C 172.671875 267.730469 172.0625 269.128906 171.359375 270.355469 C 170.660156 271.578125 169.609375 272.71875 168.5625 273.59375 C 167.421875 274.554688 166.109375 275.34375 164.796875 275.867188 C 163.484375 276.394531 161.996094 276.65625 160.597656 276.742188 C 159.195312 276.832031 157.707031 276.566406 156.308594 276.21875 C 154.996094 275.867188 153.597656 275.253906 152.457031 274.46875 C 151.320312 273.679688 150.183594 272.542969 149.308594 271.40625 C 148.433594 270.265625 147.734375 268.953125 147.292969 267.640625 C 146.855469 266.328125 146.59375 264.753906 146.59375 263.355469 C 146.59375 261.953125 146.945312 260.464844 147.382812 259.152344 C 147.820312 257.839844 148.519531 256.441406 149.394531 255.300781 C 150.269531 254.164062 151.40625 253.203125 152.546875 252.414062 C 153.769531 251.625 155.082031 250.925781 156.484375 250.578125 C 157.882812 250.226562 159.371094 250.050781 160.773438 250.140625 C 162.171875 250.226562 163.660156 250.578125 164.972656 251.101562 C 166.285156 251.625 167.597656 252.414062 168.648438 253.289062 C 169.699219 254.253906 170.660156 255.390625 171.359375 256.613281 C 172.0625 257.839844 172.671875 259.242188 172.9375 260.640625 C 173.199219 262.039062 173.375 263.527344 173.199219 264.929688 C 173.023438 266.328125 172.585938 267.816406 171.972656 269.128906 C 171.359375 270.441406 170.574219 271.578125 169.609375 272.628906 C 168.648438 273.679688 167.511719 274.554688 166.109375 275.253906 C 164.273438 276.042969 161.296875 276.65625 159.460938 276.742188 C 158.234375 276.742188 157.359375 276.480469 156.308594 276.21875 C 155.257812 275.957031 154.296875 275.519531 153.332031 274.992188 C 152.457031 274.46875 151.582031 273.769531 150.796875 273.066406 C 150.007812 272.367188 149.308594 271.492188 148.695312 270.617188 C 148.082031 269.742188 147.644531 268.78125 147.292969 267.730469 C 146.945312 266.765625 146.769531 265.628906 146.683594 264.578125 C 146.59375 263.527344 146.59375 262.390625 146.769531 261.339844 C 146.945312 260.289062 147.207031 259.242188 147.644531 258.277344 C 148.082031 257.316406 148.609375 256.351562 149.21875 255.476562 C 149.832031 254.601562 150.707031 253.902344 151.496094 253.203125 C 152.371094 252.5 153.246094 251.890625 154.207031 251.453125 C 155.171875 251.015625 156.132812 250.664062 157.183594 250.402344 C 158.234375 250.140625 159.285156 250.226562 160.421875 250.140625 C 161.648438 250.050781 162.695312 249.789062 164.273438 250.140625 C 166.898438 250.664062 171.710938 252.5 174.597656 254.515625 C 177.222656 256.351562 178.539062 259.851562 181.164062 261.515625 C 183.875 263.179688 187.988281 265.015625 190.875 264.316406 C 193.851562 263.617188 197.527344 256.265625 198.839844 256.878906 C 200.152344 257.402344 199.367188 267.378906 198.753906 267.464844 C 198.140625 267.554688 197.441406 259.242188 195.164062 257.140625 C 192.976562 255.128906 188.511719 255.738281 185.363281 254.691406 C 182.210938 253.640625 179.148438 252.5 176.347656 250.75 C 173.375 248.914062 170.136719 245.152344 168.121094 243.839844 C 167.074219 243.136719 166.285156 243.136719 165.496094 242.613281 C 164.710938 242.085938 163.921875 241.386719 163.222656 240.6875 C 162.523438 239.988281 161.910156 239.199219 161.382812 238.324219 C 160.859375 237.449219 160.507812 236.574219 160.246094 235.613281 C 159.984375 234.648438 159.808594 233.6875 159.808594 232.722656 C 159.808594 231.761719 159.898438 230.710938 160.070312 229.75 C 160.246094 228.785156 160.597656 227.824219 161.035156 226.949219 C 161.472656 226.074219 161.996094 225.199219 162.609375 224.410156 C 163.222656 223.621094 163.921875 223.011719 164.710938 222.398438 C 165.496094 221.785156 166.371094 221.257812 167.246094 220.910156 C 168.121094 220.558594 169.171875 220.296875 170.136719 220.121094 C 171.097656 219.945312 172.148438 219.859375 173.109375 219.945312 C 174.074219 220.035156 175.5625 219.683594 176 220.558594 C 177.398438 223.011719 170.660156 242.789062 168.121094 243.839844 C 167.246094 244.1875 166.285156 243.050781 165.496094 242.523438 C 164.710938 242 163.921875 241.386719 163.222656 240.6875 C 162.523438 239.988281 161.996094 239.199219 161.472656 238.324219 C 160.945312 237.449219 160.507812 236.574219 160.246094 235.613281 C 159.984375 234.648438 159.808594 233.597656 159.808594 232.636719 C 159.808594 231.671875 159.898438 230.710938 160.070312 229.75 C 160.246094 228.785156 160.597656 227.824219 161.035156 226.949219 C 161.472656 226.074219 161.996094 225.199219 162.609375 224.410156 C 163.222656 223.621094 163.921875 223.011719 164.710938 222.398438 C 165.496094 221.785156 166.371094 221.257812 167.246094 220.910156 C 168.121094 220.558594 169.171875 220.296875 170.136719 220.121094 C 171.097656 219.945312 172.148438 219.859375 173.109375 219.945312 C 174.074219 220.035156 175.125 220.121094 176 220.558594 C 176.960938 220.996094 177.398438 221.785156 178.539062 222.484375 C 180.636719 223.710938 188.339844 226.074219 188.164062 226.773438 C 187.988281 227.472656 178.097656 227.648438 177.925781 226.859375 C 177.75 226.074219 184.136719 222.746094 187.726562 221.871094 C 191.664062 220.910156 198.226562 222.660156 200.589844 221.871094 C 201.640625 221.523438 201.902344 220.734375 202.691406 220.296875 C 203.476562 219.859375 204.265625 219.507812 205.140625 219.246094 C 206.015625 218.984375 206.890625 218.808594 207.765625 218.808594 C 208.640625 218.808594 209.515625 218.808594 210.390625 218.984375 C 211.265625 219.160156 212.054688 219.507812 212.84375 219.859375 C 213.628906 220.210938 214.417969 220.734375 215.117188 221.257812 C 215.816406 221.785156 216.429688 222.484375 216.957031 223.183594 C 217.480469 223.886719 217.917969 224.671875 218.269531 225.460938 C 218.617188 226.246094 218.792969 227.121094 218.96875 228 C 219.144531 228.875 219.230469 229.75 219.144531 230.625 C 219.054688 231.5 218.878906 232.375 218.617188 233.25 C 218.355469 234.035156 217.917969 234.910156 217.480469 235.613281 C 217.042969 236.3125 216.605469 236.835938 215.816406 237.625 C 214.503906 239.023438 212.230469 240.6875 209.867188 242.875 C 206.367188 246.113281 201.117188 251.101562 197.175781 255.214844 C 193.589844 258.976562 189.5625 264.753906 187.199219 266.417969 C 186.238281 267.117188 185.625 267.203125 184.75 267.464844 C 183.875 267.730469 183 267.902344 182.125 267.902344 C 181.25 267.902344 180.375 267.816406 179.5 267.640625 C 178.625 267.464844 177.75 267.203125 176.960938 266.855469 C 176.175781 266.503906 175.472656 265.980469 174.773438 265.453125 C 174.074219 264.929688 173.460938 264.230469 172.9375 263.527344 C 172.410156 262.828125 171.886719 262.039062 171.535156 261.253906 C 171.1875 260.464844 171.011719 259.589844 170.835938 258.714844 C 170.660156 257.839844 170.574219 256.878906 170.660156 256.003906 C 170.75 255.128906 170.921875 254.253906 171.1875 253.378906 C 171.449219 252.589844 171.886719 251.714844 172.324219 251.015625 C 172.761719 250.226562 173.375 249.527344 173.988281 248.914062 C 174.597656 248.300781 175.300781 247.953125 176.175781 247.339844 C 177.3125 246.550781 178.800781 246.027344 180.289062 244.714844 C 182.648438 242.699219 186.152344 236.574219 188.25 235.523438 C 189.214844 235 189.914062 235.261719 190.789062 235.261719 C 191.578125 235.261719 192.453125 235.4375 193.238281 235.613281 C 194.027344 235.785156 194.902344 236.136719 195.601562 236.488281 C 196.390625 236.925781 197.089844 237.363281 197.703125 237.976562 C 198.316406 238.5 198.925781 239.199219 199.367188 239.898438 C 199.804688 240.601562 200.242188 241.386719 200.503906 242.175781 C 200.765625 242.964844 201.027344 243.839844 201.117188 244.625 C 201.203125 245.5 201.117188 246.289062 201.027344 247.164062 C 200.941406 247.953125 200.679688 248.828125 200.414062 249.613281 C 200.066406 250.402344 199.714844 251.1875 199.191406 251.890625 C 198.753906 252.589844 198.140625 253.203125 197.527344 253.726562 C 196.914062 254.253906 196.214844 254.777344 195.425781 255.128906 C 194.640625 255.476562 193.851562 255.738281 192.976562 256.003906 C 192.015625 256.265625 191.3125 256.265625 189.914062 256.527344 C 187.113281 257.140625 181.164062 258.539062 177.050781 259.589844 C 173.285156 260.554688 170.222656 261.515625 166.199219 262.566406 C 161.210938 263.878906 154.996094 265.804688 149.570312 266.855469 C 144.40625 267.816406 138.804688 269.128906 134.34375 268.691406 C 130.753906 268.339844 127.253906 267.554688 124.804688 265.542969 C 122.265625 263.527344 119.203125 256.878906 119.464844 256.703125 C 119.726562 256.527344 126.117188 263.617188 125.855469 263.964844 C 125.765625 264.140625 124.453125 263.441406 123.753906 263.003906 C 123.054688 262.566406 122.441406 262.039062 121.828125 261.515625 C 121.304688 260.902344 120.777344 260.289062 120.339844 259.589844 C 119.902344 258.890625 119.640625 258.191406 119.378906 257.402344 C 119.117188 256.613281 118.941406 255.828125 118.941406 255.039062 C 118.941406 254.253906 118.941406 253.464844 119.117188 252.675781 C 119.289062 251.890625 119.554688 251.101562 119.902344 250.402344 C 120.253906 249.703125 120.601562 248.914062 121.128906 248.300781 C 121.566406 247.6875 122.179688 247.074219 122.792969 246.636719 C 123.402344 246.113281 124.191406 245.761719 124.890625 245.414062 C 125.589844 245.0625 126.378906 244.800781 127.167969 244.714844 C 127.953125 244.625 128.742188 244.539062 129.53125 244.625 C 130.316406 244.714844 131.453125 244.363281 131.890625 245.0625 C 133.03125 246.988281 127.953125 263.003906 125.855469 263.964844 C 125.152344 264.316406 124.367188 263.441406 123.667969 263.003906 C 122.964844 262.566406 122.355469 262.039062 121.828125 261.515625 C 121.304688 260.902344 120.777344 260.289062 120.339844 259.589844 C 119.902344 258.890625 119.640625 258.191406 119.378906 257.402344 C 119.117188 256.613281 118.941406 255.828125 118.941406 255.039062 C 118.941406 254.253906 118.941406 253.464844 119.117188 252.675781 C 119.289062 251.890625 119.464844 251.101562 119.816406 250.402344 C 120.164062 249.703125 120.601562 248.914062 121.128906 248.300781 C 121.652344 247.6875 122.179688 247.074219 122.792969 246.636719 C 123.402344 246.113281 124.191406 245.761719 124.890625 245.414062 C 125.589844 245.0625 126.378906 244.800781 127.167969 244.714844 C 127.953125 244.625 128.742188 244.539062 129.53125 244.625 C 130.316406 244.714844 131.105469 244.800781 131.890625 245.0625 C 132.679688 245.238281 133.46875 245.675781 134.082031 245.9375 C 134.519531 246.113281 134.78125 246.199219 135.21875 246.375 C 135.832031 246.636719 136.707031 246.902344 137.40625 247.339844 C 138.105469 247.777344 138.71875 248.300781 139.242188 248.828125 C 139.769531 249.351562 140.292969 249.964844 140.644531 250.664062 C 141.082031 251.363281 141.34375 252.0625 141.605469 252.851562 C 141.867188 253.550781 141.957031 254.339844 142.042969 255.128906 C 142.132812 255.914062 142.042969 256.703125 141.867188 257.488281 C 141.695312 258.277344 141.519531 258.976562 141.167969 259.679688 C 140.820312 260.378906 140.46875 261.078125 139.945312 261.691406 C 139.507812 262.304688 138.894531 262.914062 138.28125 263.355469 C 137.667969 263.792969 136.96875 264.140625 136.269531 264.492188 C 135.566406 264.753906 134.867188 265.015625 134.082031 265.191406 C 133.292969 265.367188 132.503906 265.453125 131.71875 265.367188 C 130.929688 265.277344 129.441406 264.929688 129.441406 264.929688 " clip-rule="nonzero"/></clipPath><clipPath id="7fc087dd9a"><path d="M 172.0625 269 L 232.445312 269 L 232.445312 315.511719 L 172.0625 315.511719 Z M 172.0625 269 " clip-rule="nonzero"/></clipPath><clipPath id="dd07f4adab"><path d="M 190.613281 286.632812 C 200.414062 284.269531 203.476562 281.820312 205.929688 279.71875 C 208.292969 277.792969 210.742188 274.90625 212.230469 273.417969 C 213.015625 272.628906 213.453125 272.015625 214.15625 271.492188 C 214.855469 270.96875 215.644531 270.441406 216.429688 270.09375 C 217.21875 269.742188 218.09375 269.480469 218.96875 269.304688 C 219.84375 269.128906 220.804688 269.042969 221.679688 269.128906 C 222.554688 269.21875 223.429688 269.304688 224.304688 269.566406 C 225.183594 269.828125 225.96875 270.265625 226.757812 270.703125 C 227.542969 271.140625 228.246094 271.753906 228.855469 272.367188 C 229.46875 272.980469 230.082031 273.679688 230.519531 274.46875 C 230.957031 275.253906 231.308594 276.042969 231.570312 276.917969 C 231.832031 277.792969 232.007812 278.667969 232.09375 279.542969 C 232.183594 280.417969 232.09375 281.382812 231.921875 282.257812 C 231.746094 283.132812 231.484375 284.007812 231.132812 284.792969 C 230.78125 285.582031 230.609375 286.28125 229.730469 287.070312 C 228.070312 288.558594 222.644531 289.171875 220.632812 291.53125 C 218.707031 293.894531 219.667969 298.445312 217.832031 301.070312 C 215.816406 303.960938 211.703125 306.058594 208.464844 307.808594 C 205.492188 309.472656 202.339844 310.4375 199.191406 311.574219 C 196.128906 312.710938 190.265625 315.074219 189.914062 314.460938 C 189.5625 313.847656 196.476562 307.722656 196.738281 307.898438 C 196.914062 307.984375 195.425781 310.347656 194.550781 311.3125 C 193.675781 312.273438 192.539062 313.234375 191.402344 313.847656 C 190.265625 314.460938 188.953125 314.898438 187.636719 315.160156 C 186.324219 315.425781 184.925781 315.511719 183.613281 315.335938 C 182.300781 315.160156 180.988281 314.722656 179.761719 314.109375 C 178.625 313.5 177.488281 312.710938 176.523438 311.75 C 175.5625 310.785156 174.773438 309.734375 174.160156 308.511719 C 173.550781 307.285156 173.199219 305.886719 173.023438 304.574219 C 172.847656 303.257812 172.847656 301.859375 173.109375 300.546875 C 173.375 299.234375 173.898438 297.921875 174.511719 296.785156 C 175.210938 295.644531 176.085938 294.507812 177.050781 293.632812 C 178.011719 292.757812 179.238281 292.058594 180.460938 291.53125 C 181.6875 291.007812 183.085938 290.65625 184.402344 290.570312 C 185.714844 290.484375 187.027344 290.570312 188.339844 290.921875 C 189.652344 291.269531 190.964844 291.796875 192.101562 292.496094 C 193.238281 293.195312 194.289062 294.15625 195.078125 295.207031 C 195.863281 296.257812 196.566406 297.484375 197.003906 298.707031 C 197.441406 299.933594 197.703125 301.335938 197.789062 302.648438 C 197.878906 303.960938 197.703125 305.359375 197.265625 306.671875 C 196.828125 307.898438 196.214844 309.210938 195.425781 310.261719 C 194.640625 311.3125 193.589844 312.273438 192.539062 313.0625 C 191.488281 313.847656 190.175781 314.460938 188.953125 314.898438 C 187.636719 315.335938 186.238281 315.511719 184.925781 315.425781 C 183.613281 315.335938 182.210938 315.074219 180.988281 314.636719 C 179.761719 314.199219 178.539062 313.5 177.488281 312.625 C 176.4375 311.835938 175.5625 310.785156 174.863281 309.648438 C 174.160156 308.511719 173.636719 307.285156 173.285156 305.972656 C 172.9375 304.660156 172.847656 303.257812 172.9375 301.945312 C 173.023438 300.632812 173.898438 298.007812 173.898438 298.007812 C 173.898438 298.007812 182.914062 293.371094 187.113281 292.058594 C 190.613281 291.007812 194.550781 291.882812 197.175781 290.21875 C 199.714844 288.558594 200.679688 285.058594 202.777344 282.34375 C 205.230469 279.195312 207.589844 274.730469 210.917969 272.542969 C 214.15625 270.441406 222.382812 269.21875 222.46875 269.390625 C 222.554688 269.566406 212.492188 273.855469 212.230469 273.417969 C 212.054688 273.242188 213.453125 272.015625 214.15625 271.492188 C 214.855469 270.96875 215.644531 270.441406 216.429688 270.09375 C 217.21875 269.742188 218.09375 269.480469 218.96875 269.304688 C 219.84375 269.128906 220.804688 269.042969 221.679688 269.128906 C 222.554688 269.21875 223.429688 269.304688 224.304688 269.566406 C 225.183594 269.828125 225.96875 270.265625 226.757812 270.703125 C 227.542969 271.140625 228.246094 271.753906 228.855469 272.367188 C 229.46875 272.980469 230.082031 273.679688 230.519531 274.46875 C 230.957031 275.253906 231.308594 276.042969 231.570312 276.917969 C 231.832031 277.792969 232.007812 278.667969 232.09375 279.542969 C 232.183594 280.417969 232.09375 281.382812 231.921875 282.257812 C 231.746094 283.132812 231.484375 284.007812 231.132812 284.792969 C 230.78125 285.582031 230.171875 286.457031 229.730469 287.070312 C 229.382812 287.59375 229.292969 287.769531 228.769531 288.292969 C 227.457031 289.695312 223.519531 293.109375 220.804688 295.382812 C 218.09375 297.660156 215.730469 300.109375 212.578125 301.773438 C 209.167969 303.523438 204.265625 304.660156 200.851562 305.449219 C 198.226562 306.058594 195.515625 306.234375 193.765625 306.410156 C 192.800781 306.496094 192.1875 306.671875 191.402344 306.585938 C 190.613281 306.496094 189.828125 306.324219 189.039062 306.058594 C 188.25 305.796875 187.550781 305.449219 186.851562 305.011719 C 186.152344 304.574219 185.449219 304.132812 184.925781 303.523438 C 184.402344 302.910156 183.964844 302.210938 183.523438 301.507812 C 183.175781 300.808594 182.824219 300.109375 182.5625 299.320312 C 182.386719 298.535156 182.210938 297.746094 182.210938 296.957031 C 182.210938 296.171875 182.210938 295.296875 182.386719 294.507812 C 182.5625 293.71875 182.824219 292.933594 183.175781 292.234375 C 183.523438 291.53125 183.964844 290.832031 184.488281 290.21875 C 185.011719 289.609375 185.625 289.082031 186.238281 288.558594 C 186.851562 288.121094 187.550781 287.683594 188.25 287.332031 C 188.953125 286.980469 190.613281 286.632812 190.613281 286.632812 " clip-rule="nonzero"/></clipPath><clipPath id="fc448655e0"><path d="M 176 287 L 211 287 L 211 313.671875 L 176 313.671875 Z M 176 287 " clip-rule="nonzero"/></clipPath><clipPath id="bcfd55a1e0"><path d="M 183.613281 294.070312 C 188.074219 292.40625 192.714844 289.695312 194.988281 288.730469 C 196.300781 288.207031 197.089844 287.769531 198.140625 287.59375 C 199.277344 287.417969 200.414062 287.332031 201.554688 287.507812 C 202.691406 287.683594 203.828125 287.945312 204.792969 288.46875 C 205.839844 288.996094 206.804688 289.695312 207.589844 290.484375 C 208.378906 291.269531 208.992188 292.234375 209.515625 293.195312 C 210.042969 294.160156 210.390625 295.296875 210.566406 296.433594 C 210.742188 297.570312 210.65625 298.707031 210.480469 299.847656 C 210.304688 300.984375 209.78125 302.121094 209.253906 303.085938 C 208.730469 304.046875 207.941406 305.011719 207.152344 305.710938 C 206.277344 306.496094 205.316406 307.109375 204.265625 307.546875 C 203.214844 307.984375 202.164062 308.246094 201.027344 308.335938 C 199.890625 308.421875 198.753906 308.335938 197.613281 308.074219 C 196.566406 307.808594 195.425781 307.371094 194.464844 306.761719 C 193.5 306.148438 192.625 305.359375 191.925781 304.484375 C 191.226562 303.609375 190.613281 302.558594 190.265625 301.507812 C 189.914062 300.460938 189.652344 299.320312 189.652344 298.183594 C 189.652344 297.046875 189.738281 295.910156 190.089844 294.859375 C 190.4375 293.808594 190.964844 292.671875 191.578125 291.796875 C 192.277344 290.832031 193.152344 290.046875 194.027344 289.34375 C 194.902344 288.730469 195.953125 288.207031 197.003906 287.855469 C 198.050781 287.507812 199.277344 287.417969 200.414062 287.417969 C 201.554688 287.417969 202.691406 287.683594 203.742188 288.03125 C 204.792969 288.382812 205.839844 288.996094 206.714844 289.695312 C 207.589844 290.394531 208.378906 291.269531 208.992188 292.234375 C 209.605469 293.195312 210.042969 294.332031 210.304688 295.382812 C 210.566406 296.433594 210.65625 297.570312 210.566406 298.707031 C 210.480469 299.847656 210.21875 300.984375 209.78125 302.035156 C 209.34375 303.085938 208.730469 304.046875 207.941406 304.921875 C 207.242188 305.710938 205.316406 307.023438 205.316406 307.023438 C 205.316406 307.023438 202.515625 308.511719 200.679688 309.296875 C 198.050781 310.347656 193.328125 311.835938 191.140625 312.449219 C 190.089844 312.710938 189.476562 312.796875 188.6875 312.972656 C 187.902344 313.148438 187.113281 313.324219 186.324219 313.324219 C 185.539062 313.324219 184.75 313.234375 183.964844 313.0625 C 183.175781 312.886719 182.476562 312.625 181.773438 312.273438 C 181.074219 311.921875 180.375 311.484375 179.761719 310.960938 C 179.148438 310.4375 178.625 309.824219 178.1875 309.210938 C 177.75 308.597656 177.3125 307.808594 177.050781 307.109375 C 176.785156 306.410156 176.523438 305.621094 176.4375 304.835938 C 176.347656 304.046875 176.261719 303.257812 176.347656 302.472656 C 176.4375 301.683594 176.613281 300.898438 176.875 300.195312 C 177.136719 299.496094 177.488281 298.707031 177.925781 298.097656 C 178.363281 297.394531 178.886719 296.785156 179.5 296.257812 C 180.113281 295.734375 180.726562 295.296875 181.425781 294.945312 C 182.125 294.597656 183.613281 294.070312 183.613281 294.070312 " clip-rule="nonzero"/></clipPath><clipPath id="e60eb7a240"><path d="M 175.5625 289 L 205.316406 289 L 205.316406 313.847656 L 175.5625 313.847656 Z M 175.5625 289 " clip-rule="nonzero"/></clipPath><clipPath id="abf3ead5d4"><path d="M 188.777344 289.871094 C 192.539062 290.832031 197.878906 289.257812 200.242188 290.65625 C 202.691406 292.058594 205.054688 295.996094 205.054688 299.058594 C 205.140625 302.558594 198.316406 309.910156 198.925781 310.4375 C 199.277344 310.785156 202.691406 307.722656 202.867188 307.898438 C 203.039062 308.074219 201.992188 309.386719 201.464844 310 C 200.941406 310.609375 200.242188 311.222656 199.539062 311.75 C 198.839844 312.273438 198.140625 312.625 197.351562 312.972656 C 196.566406 313.324219 195.691406 313.585938 194.816406 313.671875 C 193.941406 313.761719 193.152344 313.761719 192.277344 313.671875 C 191.402344 313.585938 190.527344 313.410156 189.738281 313.148438 C 188.953125 312.886719 188.164062 312.449219 187.464844 312.011719 C 186.761719 311.574219 186.0625 310.960938 185.539062 310.347656 C 184.925781 309.734375 184.488281 309.035156 184.050781 308.246094 C 183.613281 307.546875 183.261719 306.671875 183.085938 305.886719 C 182.824219 305.097656 182.738281 304.222656 182.738281 303.347656 C 182.738281 302.472656 182.824219 301.597656 183 300.722656 C 183.175781 299.933594 183.875 298.359375 183.875 298.359375 C 183.964844 298.359375 182.738281 302.648438 182.738281 302.648438 C 182.738281 302.648438 183.085938 300.371094 183.4375 299.320312 C 183.875 298.269531 184.402344 297.222656 185.101562 296.347656 C 185.800781 295.472656 186.761719 294.683594 187.726562 294.070312 C 188.6875 293.457031 189.738281 293.019531 190.875 292.757812 C 192.015625 292.496094 193.238281 292.40625 194.378906 292.496094 C 195.515625 292.582031 196.652344 292.933594 197.703125 293.371094 C 198.753906 293.808594 199.714844 294.507812 200.589844 295.296875 C 201.378906 296.082031 202.164062 297.046875 202.691406 298.007812 C 203.214844 298.972656 203.652344 300.109375 203.828125 301.246094 C 204.003906 302.382812 204.089844 303.523438 203.914062 304.660156 C 203.742188 305.796875 203.390625 306.933594 202.867188 307.984375 C 202.339844 308.949219 201.554688 309.910156 200.765625 310.699219 C 199.976562 311.484375 199.015625 312.1875 197.964844 312.710938 C 196.914062 313.234375 195.777344 313.585938 194.640625 313.671875 C 193.5 313.761719 192.363281 313.761719 191.226562 313.5 C 190.089844 313.234375 188.953125 312.886719 187.988281 312.273438 C 187.027344 311.75 186.0625 310.960938 185.363281 310.085938 C 184.574219 309.210938 183.964844 308.246094 183.523438 307.199219 C 183.085938 306.148438 182.824219 304.921875 182.738281 303.785156 C 182.648438 302.648438 182.824219 301.421875 183.085938 300.371094 C 183.351562 299.234375 183.875 298.183594 184.488281 297.222656 C 185.101562 296.257812 185.886719 295.382812 186.761719 294.683594 C 187.636719 293.984375 188.777344 293.371094 189.828125 293.019531 C 190.875 292.671875 192.101562 292.40625 193.238281 292.40625 C 194.378906 292.40625 195.601562 292.582031 196.652344 292.933594 C 197.703125 293.28125 198.839844 293.808594 199.714844 294.507812 C 200.589844 295.207031 201.464844 295.996094 202.078125 296.957031 C 202.691406 297.921875 203.304688 298.796875 203.566406 300.109375 C 203.914062 302.121094 203.476562 306.148438 202.867188 307.898438 C 202.515625 308.859375 201.992188 309.386719 201.464844 310 C 200.941406 310.609375 200.242188 311.222656 199.539062 311.75 C 198.839844 312.273438 198.140625 312.625 197.351562 312.972656 C 196.566406 313.324219 195.691406 313.585938 194.816406 313.671875 C 193.941406 313.761719 193.152344 313.761719 192.277344 313.671875 C 191.402344 313.585938 190.527344 313.410156 189.738281 313.148438 C 188.953125 312.886719 188.164062 312.449219 187.464844 312.011719 C 186.761719 311.574219 186.0625 310.960938 185.539062 310.347656 C 184.925781 309.734375 184.488281 309.035156 184.050781 308.246094 C 183.613281 307.546875 183.261719 306.671875 183.085938 305.886719 C 182.824219 305.097656 182.738281 304.222656 182.738281 303.347656 C 182.738281 302.472656 182.824219 301.597656 183 300.722656 C 183.175781 299.933594 183.351562 299.320312 183.875 298.359375 C 184.75 296.785156 187.988281 292.058594 188.425781 292.320312 C 189.039062 292.582031 184.402344 300.546875 185.363281 303.609375 C 186.238281 306.496094 193.589844 309.472656 193.238281 310.347656 C 192.890625 311.222656 185.449219 309.472656 183.523438 308.949219 C 182.648438 308.683594 182.386719 308.421875 181.773438 308.160156 C 181.164062 307.808594 180.375 307.460938 179.761719 307.023438 C 179.148438 306.585938 178.539062 306.058594 178.011719 305.449219 C 177.488281 304.835938 176.960938 304.222656 176.613281 303.523438 C 176.261719 302.820312 176 302.121094 175.824219 301.335938 C 175.648438 300.546875 175.5625 299.757812 175.5625 298.972656 C 175.5625 298.183594 175.648438 297.394531 175.824219 296.609375 C 176 295.820312 176.347656 295.121094 176.699219 294.421875 C 177.050781 293.71875 177.488281 293.109375 178.011719 292.496094 C 178.539062 291.882812 179.148438 291.359375 179.761719 290.921875 C 180.375 290.484375 181.164062 290.132812 181.863281 289.871094 C 182.5625 289.609375 183.351562 289.433594 184.136719 289.34375 C 184.925781 289.257812 185.714844 289.257812 186.5 289.34375 C 187.289062 289.433594 188.777344 289.871094 188.777344 289.871094 " clip-rule="nonzero"/></clipPath></defs><rect x="-37.5" width="450" fill="#ffffff" y="-37.499999" height="449.999989" fill-opacity="1"/><rect x="-37.5" width="450" fill="#ffffff" y="-37.499999" height="449.999989" fill-opacity="1"/><rect x="-37.5" width="450" fill="#ffffff" y="-37.499999" height="449.999989" fill-opacity="1"/><g clip-path="url(#ea79c25632)"><g clip-path="url(#1635832547)"><path fill="#3bb77e" d="M 66.496094 245.992188 L 66.496094 347.625 L 211.707031 347.625 L 211.707031 245.992188 Z M 66.496094 245.992188 " fill-opacity="1" fill-rule="nonzero"/></g></g><g clip-path="url(#82f71a6a40)"><g clip-path="url(#69c0f4d980)"><path fill="#3bb77e" d="M 124.5 229.140625 L 124.5 313.894531 L 221.574219 313.894531 L 221.574219 229.140625 Z M 124.5 229.140625 " fill-opacity="1" fill-rule="nonzero"/></g></g><g clip-path="url(#a7a1de876e)"><g clip-path="url(#05e1139083)"><path fill="#3bb77e" d="M 125.019531 71.410156 L 125.019531 155.605469 L 239.503906 155.605469 L 239.503906 71.410156 Z M 125.019531 71.410156 " fill-opacity="1" fill-rule="nonzero"/></g></g><g clip-path="url(#896d601e3f)"><g clip-path="url(#686564fac5)"><path fill="#3bb77e" d="M 95.933594 46.523438 L 58.574219 309.082031 L 267.558594 338.828125 L 304.914062 76.273438 Z M 95.933594 46.523438 " fill-opacity="1" fill-rule="nonzero"/></g></g><g clip-path="url(#60d89348c8)"><g clip-path="url(#978185bfcc)"><path fill="#3bb77e" d="M 151.011719 27.90625 L 151.011719 154.5 L 308.910156 154.5 L 308.910156 27.90625 Z M 151.011719 27.90625 " fill-opacity="1" fill-rule="nonzero"/></g></g><g clip-path="url(#98b2510c04)"><g clip-path="url(#6ee175b7b3)"><path fill="#3bb77e" d="M 110.890625 79.925781 L 175.648438 79.925781 L 175.648438 114.054688 L 110.890625 114.054688 Z M 110.890625 79.925781 " fill-opacity="1" fill-rule="nonzero"/></g></g><g clip-path="url(#6061d4f4d1)"><g clip-path="url(#fe00cd5c3b)"><path fill="#3bb77e" d="M 125.242188 67.234375 L 219.757812 67.234375 L 219.757812 177.503906 L 125.242188 177.503906 Z M 125.242188 67.234375 " fill-opacity="1" fill-rule="nonzero"/></g></g><g clip-path="url(#1421818e57)"><g clip-path="url(#41665f6458)"><path fill="#3bb77e" d="M 176.261719 98.828125 L 248.898438 98.828125 L 248.898438 143.460938 L 176.261719 143.460938 Z M 176.261719 98.828125 " fill-opacity="1" fill-rule="nonzero"/></g></g><g clip-path="url(#b92c2e904f)"><g clip-path="url(#94e346ade4)"><path fill="#3bb77e" d="M 177.050781 137.070312 L 206.804688 137.070312 L 206.804688 166.828125 L 177.050781 166.828125 Z M 177.050781 137.070312 " fill-opacity="1" fill-rule="nonzero"/></g></g><g clip-path="url(#83e0357b97)"><g clip-path="url(#403924d0c8)"><path fill="#3bb77e" d="M 124.191406 249.351562 L 150.445312 249.351562 L 150.445312 276.480469 L 124.191406 276.480469 Z M 124.191406 249.351562 " fill-opacity="1" fill-rule="nonzero"/></g></g><g clip-path="url(#c7f29d8dd0)"><g clip-path="url(#2d514c2ac9)"><path fill="#3bb77e" d="M 115.441406 215.308594 L 225.707031 215.308594 L 225.707031 297.570312 L 115.441406 297.570312 Z M 115.441406 215.308594 " fill-opacity="1" fill-rule="nonzero"/></g></g><g clip-path="url(#7fc087dd9a)"><g clip-path="url(#dd07f4adab)"><path fill="#3bb77e" d="M 169.4375 265.628906 L 235.945312 265.628906 L 235.945312 319.011719 L 169.4375 319.011719 Z M 169.4375 265.628906 " fill-opacity="1" fill-rule="nonzero"/></g></g><g clip-path="url(#fc448655e0)"><g clip-path="url(#bcfd55a1e0)"><path fill="#3bb77e" d="M 172.847656 283.917969 L 213.980469 283.917969 L 213.980469 317.175781 L 172.847656 317.175781 Z M 172.847656 283.917969 " fill-opacity="1" fill-rule="nonzero"/></g></g><g clip-path="url(#e60eb7a240)"><g clip-path="url(#abf3ead5d4)"><path fill="#3bb77e" d="M 172.0625 285.84375 L 208.816406 285.84375 L 208.816406 317.347656 L 172.0625 317.347656 Z M 172.0625 285.84375 " fill-opacity="1" fill-rule="nonzero"/></g></g></svg>