<svg xmlns="http://www.w3.org/2000/svg" xmlns:xlink="http://www.w3.org/1999/xlink" width="500" zoomAndPan="magnify" viewBox="0 0 375 374.999991" height="500" preserveAspectRatio="xMidYMid meet" version="1.0"><defs><clipPath id="04fcd02052"><path d="M 17.597656 17.597656 L 109 17.597656 L 109 109 L 17.597656 109 Z M 17.597656 17.597656 " clip-rule="nonzero"/></clipPath><clipPath id="21ab0a65d9"><path d="M 17.597656 266 L 109 266 L 109 357.347656 L 17.597656 357.347656 Z M 17.597656 266 " clip-rule="nonzero"/></clipPath><clipPath id="503efa5b00"><path d="M 266 17.597656 L 357.347656 17.597656 L 357.347656 109 L 266 109 Z M 266 17.597656 " clip-rule="nonzero"/></clipPath><clipPath id="14aad7891b"><path d="M 266 266 L 357.347656 266 L 357.347656 357.347656 L 266 357.347656 Z M 266 266 " clip-rule="nonzero"/></clipPath></defs><rect x="-37.5" width="450" fill="#ffffff" y="-37.499999" height="449.999989" fill-opacity="1"/><rect x="-37.5" width="450" fill="#ffffff" y="-37.499999" height="449.999989" fill-opacity="1"/><rect x="-37.5" width="450" fill="#ffffff" y="-37.499999" height="449.999989" fill-opacity="1"/><g clip-path="url(#04fcd02052)"><path fill="#000000" d="M 96.871094 17.597656 L 51.574219 17.597656 C 32.820312 17.597656 17.597656 32.820312 17.597656 51.574219 L 17.597656 96.871094 C 17.597656 103.125 22.671875 108.199219 28.921875 108.199219 C 35.175781 108.199219 40.246094 103.125 40.246094 96.871094 L 40.246094 51.574219 C 40.246094 45.320312 45.320312 40.246094 51.574219 40.246094 C 51.574219 40.246094 96.871094 40.246094 96.871094 40.246094 C 103.125 40.246094 108.199219 35.175781 108.199219 28.921875 C 108.199219 22.671875 103.125 17.597656 96.871094 17.597656 Z M 96.871094 17.597656 " fill-opacity="1" fill-rule="evenodd"/></g><g clip-path="url(#21ab0a65d9)"><path fill="#000000" d="M 96.871094 334.699219 L 51.574219 334.699219 C 45.320312 334.699219 40.246094 329.625 40.246094 323.371094 C 40.246094 323.371094 40.246094 278.074219 40.246094 278.074219 C 40.246094 271.820312 35.175781 266.746094 28.921875 266.746094 C 22.671875 266.746094 17.597656 271.820312 17.597656 278.074219 L 17.597656 323.371094 C 17.597656 342.128906 32.820312 357.347656 51.574219 357.347656 C 51.574219 357.347656 96.871094 357.347656 96.871094 357.347656 C 103.125 357.347656 108.199219 352.273438 108.199219 346.023438 C 108.199219 339.773438 103.125 334.699219 96.871094 334.699219 Z M 96.871094 334.699219 " fill-opacity="1" fill-rule="evenodd"/></g><g clip-path="url(#503efa5b00)"><path fill="#000000" d="M 278.074219 40.246094 L 323.371094 40.246094 C 329.625 40.246094 334.699219 45.320312 334.699219 51.574219 C 334.699219 51.574219 334.699219 96.871094 334.699219 96.871094 C 334.699219 103.125 339.773438 108.199219 346.023438 108.199219 C 352.273438 108.199219 357.347656 103.125 357.347656 96.871094 L 357.347656 51.574219 C 357.347656 32.820312 342.128906 17.597656 323.371094 17.597656 L 278.074219 17.597656 C 271.820312 17.597656 266.746094 22.671875 266.746094 28.921875 C 266.746094 35.175781 271.820312 40.246094 278.074219 40.246094 Z M 278.074219 40.246094 " fill-opacity="1" fill-rule="evenodd"/></g><g clip-path="url(#14aad7891b)"><path fill="#000000" d="M 278.074219 357.347656 L 323.371094 357.347656 C 342.128906 357.347656 357.347656 342.128906 357.347656 323.371094 L 357.347656 278.074219 C 357.347656 271.820312 352.273438 266.746094 346.023438 266.746094 C 339.773438 266.746094 334.699219 271.820312 334.699219 278.074219 L 334.699219 323.371094 C 334.699219 329.625 329.625 334.699219 323.371094 334.699219 L 278.074219 334.699219 C 271.820312 334.699219 266.746094 339.773438 266.746094 346.023438 C 266.746094 352.273438 271.820312 357.347656 278.074219 357.347656 Z M 278.074219 357.347656 " fill-opacity="1" fill-rule="evenodd"/></g><path fill="#000000" d="M 187.472656 62.898438 C 118.71875 62.898438 62.898438 118.71875 62.898438 187.472656 C 62.898438 256.226562 118.71875 312.046875 187.472656 312.046875 C 256.226562 312.046875 312.046875 256.226562 312.046875 187.472656 C 312.046875 118.71875 256.226562 62.898438 187.472656 62.898438 Z M 187.472656 85.546875 C 243.722656 85.546875 289.398438 131.222656 289.398438 187.472656 C 289.398438 243.722656 243.722656 289.398438 187.472656 289.398438 C 131.222656 289.398438 85.546875 243.722656 85.546875 187.472656 C 85.546875 131.222656 131.222656 85.546875 187.472656 85.546875 Z M 187.472656 85.546875 " fill-opacity="1" fill-rule="evenodd"/><path fill="#000000" d="M 187.472656 108.191406 C 143.714844 108.191406 108.191406 143.714844 108.191406 187.472656 C 108.191406 231.234375 143.714844 266.753906 187.472656 266.753906 C 231.234375 266.753906 266.753906 231.234375 266.753906 187.472656 C 266.753906 143.714844 231.234375 108.191406 187.472656 108.191406 Z M 187.472656 130.855469 C 218.730469 130.855469 244.09375 156.214844 244.09375 187.472656 C 244.09375 218.730469 218.730469 244.09375 187.472656 244.09375 C 156.214844 244.09375 130.851562 218.730469 130.851562 187.472656 C 130.851562 156.214844 156.214844 130.855469 187.472656 130.855469 Z M 187.472656 130.855469 " fill-opacity="1" fill-rule="evenodd"/></svg>